<svg id="Layer_1" data-name="Layer 1" xmlns="http://www.w3.org/2000/svg" viewBox="0 0 254.92 144.92"><defs><style>.cls-1,.cls-10,.cls-2{fill:none;stroke:#000;stroke-miterlimit:10;}.cls-1{stroke-width:0.5px;}.cls-2{stroke-width:1.96px;}.cls-3{font-size:12px;font-family:Webdings, Webdings;}.cls-4,.cls-9{font-family:CairoExtended, CairoExtended;}.cls-5{font-size:4px;font-family:Biggen, Biggen;}.cls-6,.cls-9{font-size:10px;}.cls-6{font-family:CopperplateGothic-Bold, Copperplate Gothic Bold;}.cls-7{letter-spacing:-0.09em;}.cls-8{letter-spacing:0em;}.cls-10{stroke-linecap:round;stroke-width:2px;}</style></defs><title>Artboard 1</title><polygon class="cls-1" points="253.67 144.92 23.67 144.92 0 144.92 0 1.25 253.67 1.25 253.67 144.92"/><polygon class="cls-2" points="254.92 144.92 23.78 144.92 0 144.92 0 0 254.92 0 254.92 144.92"/><line class="cls-1" x1="22" y1="23.63" x2="21.72" y2="144.92"/><line class="cls-1" x1="50.82" y1="23.69" x2="50.54" y2="144.92"/><line class="cls-1" x1="76.15" y1="23.75" x2="75.87" y2="144.92"/><line class="cls-1" x1="101.82" y1="144.92" x2="102.1" y2="23.63"/><line class="cls-1" x1="128.77" y1="23.63" x2="128.49" y2="144.92"/><line class="cls-1" x1="153.54" y1="144.92" x2="153.82" y2="23.66"/><line class="cls-1" x1="179.61" y1="144.92" x2="179.77" y2="23.63"/><line class="cls-1" x1="208.31" y1="144.92" x2="208.59" y2="23.69"/><line class="cls-1" x1="231.07" y1="144.04" x2="231.35" y2="23.63"/><line class="cls-1" x1="253.67" y1="23.75" y2="23.5"/><line class="cls-1" y1="50.26" x2="253.67" y2="50.51"/><line class="cls-1" y1="76.01" x2="253.67" y2="76.26"/><line class="cls-1" x1="254.29" y1="102.01" x2="0.63" y2="101.76"/><line class="cls-1" x1="0.63" y1="127.51" x2="254.29" y2="127.76"/><text class="cls-3" transform="translate(12.17 16.25) scale(1.02 1)">l<tspan class="cls-4" x="12" y="0" xml:space="preserve"> % ANNUAL DECREASE IN PRICES </tspan><tspan x="214.11" y="0">l</tspan></text><text class="cls-5" transform="translate(71.01 22)">SOURCE-GRINGOTTS BANK</text><circle cx="22.04" cy="50.57" r="3.18"/><circle cx="22.04" cy="76.82" r="3.18"/><circle cx="22.92" cy="101.78" r="3.18"/><circle cx="49.93" cy="128.03" r="3.18"/><circle cx="101.93" cy="127.31" r="3.18"/><circle cx="153.8" cy="126.83" r="3.18"/><circle cx="208.45" cy="127.71" r="3.18"/><text class="cls-6" transform="translate(4.74 41)">06</text><text class="cls-6" transform="translate(5.19 69)"><tspan class="cls-7">1</tspan><tspan x="6.23" y="0">2</tspan></text><text class="cls-6" transform="translate(4.74 95)"><tspan class="cls-8">2</tspan><tspan x="7.14" y="0">4</tspan></text><text class="cls-6" transform="translate(4.74 119)">48</text><text class="cls-9" transform="translate(53.11 139.25)">JFM</text><text class="cls-9" transform="translate(106.17 139.25)">AMJ</text><text class="cls-9" transform="translate(156.99 139.25)">JAS</text><text class="cls-9" transform="translate(209.92 139.25)">OND</text><path class="cls-10" d="M37.42,26,49.93,49,74.67,66s65.27,13,79.13,23.75L179.61,86l59.56,33"/></svg>