<?xml version="1.0" standalone="no"?>
<!DOCTYPE svg PUBLIC "-//W3C//DTD SVG 1.1//EN" "http://www.w3.org/Graphics/SVG/1.1/DTD/svg11.dtd" >
<svg>
<metadata>
Created by FontForge 20090914 at Thu Feb 23 23:34:13 2012
 By root
Copyright &#194;&#169; 1986-1995 SWFTE International, Ltd. All rights reserved
</metadata>
<defs>
<font id="GoldRushRegularSWFTE" horiz-adv-x="337" >
  <font-face 
    font-family="GoldRush"
    font-weight="400"
    font-stretch="normal"
    units-per-em="1000"
    panose-1="0 0 4 0 0 0 0 0 0 0"
    ascent="800"
    descent="-200"
    x-height="672"
    cap-height="841"
    bbox="29 -265 1055 920"
    underline-thickness="70"
    underline-position="-115"
    unicode-range="U+0020-U+2022"
  />
<missing-glyph horiz-adv-x="500" 
d="M63 0v800h375v-800h-375zM125 63h250v675h-250v-675z" />
    <glyph glyph-name=".notdef" horiz-adv-x="500" 
d="M63 0v800h375v-800h-375zM125 63h250v675h-250v-675z" />
    <glyph glyph-name=".null" horiz-adv-x="0" 
 />
    <glyph glyph-name="nonmarkingreturn" 
 />
    <glyph glyph-name="space" unicode=" " 
 />
    <glyph glyph-name="exclam" unicode="!" horiz-adv-x="432" 
d="M418 558l-61 -454q-4 -34 13 -74q17 -43 17 -73q0 -42 -27 -71t-67 -29q-75 0 -139 83q-57 75 -57 142q0 55 51 105q-10 25 -43.5 236.5t-33.5 246.5q0 64 23 109q33 62 102 62q82 0 157 -110q69 -101 65 -173zM301 670q-2 56 -24 97q-28 54 -78 54q-48 0 -76 -45
q-24 -41 -26 -106l57 -435h90zM270 84q0 30 -18 57q-22 32 -56 32t-56 -33q-18 -27 -18 -56q0 -22 20 -52q24 -37 54 -37q33 0 56 33q18 28 18 56zM275 670q0 -42 -37 -242q-5 5 -16 5q-18 0 -18 -15q0 -6 15 -39.5t15 -39.5q0 -7 -15 -37q-20 -38 -23 -47q-5 39 -38 79
q15 30 41 91q-7 8 -23 8q-7 0 -14 -2t-8 -2l-37 241q11 130 82 130q45 0 65 -56q11 -34 11 -74zM240 517q0 5 -16 54q-19 63 -28 97q1 -29 -18.5 -89.5t-19.5 -61.5q0 -7 18 -39q22 -40 26 -50q0 22 19 54t19 35z" />
    <glyph glyph-name="quotedbl" unicode="&#x22;" horiz-adv-x="547" 
d="M515 688l-42 -254h-89q-47 44 -64 68q-29 42 -27 84q-3 -11 -29 -152h-89q-1 1 -46 38q-29 25 -36 45q-32 97 -32 253q0 38 25.5 64.5t61.5 26.5q64 0 119 -71q36 71 90 71q56 0 107 -51q53 -55 51 -122zM418 777q-1 24 -19.5 41.5t-41.5 17.5q-58 0 -66 -61l31 -244h54z
M209 777q-12 59 -61 59q-61 0 -61 -69l26 -236h54zM392 772l-31 -221h-24l-21 219q0 46 38 46q14 0 27.5 -12t10.5 -32zM183 772l-31 -221h-24l-21 221q0 18 10.5 31t27.5 13q14 0 27.5 -12t10.5 -32z" />
    <glyph glyph-name="dollar" unicode="$" horiz-adv-x="755" 
d="M744 97q0 -100 -62 -165.5t-168 -68.5q-5 -12 -5 -51h-125q-49 66 -140 148q-95 86 -121 118q-52 66 -52 139q0 133 128 148q-123 82 -123 206q0 80 50 151q59 83 160 98v77h131q29 -38 126 -124q92 -82 131 -135q60 -82 60 -167q0 -111 -97 -143q51 -50 80 -117
q27 -61 27 -114zM627 232q0 94 -61 157q-55 57 -174 99q0 217 4 221l57 -16q47 -18 47 -43q0 -24 -31 -37.5t-31 -49.5q0 -32 28 -52q24 -17 54 -17q45 0 72 35q25 31 25 78q0 73 -60 124t-165 73v67h-86q9 -41 1 -71q-93 -12 -151 -78q-54 -62 -54 -143q0 -87 50 -143
q34 -38 158 -119v-200h-21q-9 0 -42 23.5t-33 37.5q0 4 23 29t23 55q0 29 -22 49t-54 20q-41 0 -64 -32t-23 -75q0 -144 213 -208q2 -28 2 -71h84q-7 41 1 76q109 -5 172 60q58 58 58 151zM596 612q0 -34 -21 -64q-24 -33 -58 -33q-20 0 -36.5 14.5t-16.5 33.5
q0 21 30.5 40.5t30.5 43.5q0 34 -60 61q-48 21 -76 21h-21v-256q34 -19 70 -33q-10 3 -46 3h-33q-15 -2 -38 -17l132 -27q57 -16 80 -48q28 -38 28 -119q0 -12 -13 -84q1 10 1 20q0 103 -160 175l-34 46q-32 44 -47 44q-9 0 -39 -11.5t-37 -18.5q-46 20 -78 76
q-32 53 -32 105q0 67 55 128q61 68 150 67q8 32 0 61h39v-56q93 -10 152 -45q78 -46 78 -127zM479 191q0 -15 -15 -42q-19 -32 -39 -31h-32v172q40 -20 63 -48t23 -51zM330 485v243h-26q-45 1 -73 -44q-22 -35 -22 -65q0 -90 121 -134zM306 435q-31 16 -75 74
q-53 70 -53 123q0 7 1.5 21.5t1.5 19.5q-33 -76 -33 -117q0 -38 61 -78q48 -31 97 -43zM310 515q-76 41 -76 104q0 67 71 89z" />
    <glyph glyph-name="ampersand" unicode="&#x26;" horiz-adv-x="932" 
d="M443 663q0 -21 -20 -58t-38 -49q-17 13 -33 52q-16 36 -16 55q0 20 14.5 40.5t36.5 20.5q25 0 42 -22q14 -19 14 -39zM316 663q0 -69 64 -138q84 64 84 138q0 65 -46 79q-58 1 -74 -7q-28 -15 -28 -72zM530 650q0 -103 -115 -227q-1 5 -16 11h-33q0 1 -9 -8
q27 -31 79 -67q23 -113 93 -206l-116 117q-64 71 -64 129q0 9 3 25.5t3 25.5q0 32 -36 107q-38 79 -41 116q-8 -27 -8 -82q0 -50 6 -65q13 -38 70 -97q-15 9 -35 9q-30 0 -47.5 -30.5t-12.5 -59.5q-80 -77 -80 -166q0 -21 6 -39q-24 64 -29 86.5t-5 61.5q0 43 6 54
q5 8 33 23q38 20 78 53q-13 12 -28 12q-22 0 -29 -6q31 23 67 45q-17 25 -30 78q-11 47 -11 82q0 70 34 116q37 52 104 52q65 0 127 -49q36 -57 36 -101zM245 229q0 28 14 60q17 38 45 52q64 -129 119 -191q-7 -8 -83 -32q-41 -1 -70 41q-25 36 -25 70zM612 176
q62 78 90 143l26 64q12 17 63 24v70h-261v-70q19 -5 39 -9q22 -8 22 -36q0 -18 -13 -44q-15 -29 -35 -48l-100 151q113 111 113 226q0 10 -11 48t-20 58q-51 68 -150 68q-85 0 -132 -60q-39 -51 -39 -126q0 -33 10 -77l20 -77q-158 -97 -158 -249q0 -111 65 -176.5
t172 -65.5q41 0 117.5 30.5t69.5 30.5q-2 0 70 -30.5t88 -30.5q40 0 82 33q52 40 49 100v85h-90q8 -42 0 -85q-41 -7 -51 3q-28 25 -36 50zM912 94q0 -92 -30 -154q-41 -83 -128 -83q-72 0 -140 61q-62 -61 -186 -61q-157 0 -269 114q-108 110 -108 258q0 71 33 134
q41 77 125 124q-13 19 -22 68q-9 43 -9 74q0 82 44 141q51 71 145 71q110 0 214 -90q92 -106 92 -165q0 -38 -26 -79q4 -3 167 2l98 -134v-104q-16 4 -49 -2q-47 -7 -47 -37q0 -2 76 -108q20 -21 20 -30z" />
    <glyph glyph-name="quotesingle" unicode="'" horiz-adv-x="342" 
d="M311 691l-47 -257h-89l-46 39q-29 26 -36 49q-32 101 -32 248q0 38 26.5 64.5t62.5 26.5q53 0 104 -51q53 -54 57 -119zM209 777q-12 59 -61 59q-61 0 -61 -69l26 -236h54zM183 769l-31 -218h-24l-21 221q0 18 10.5 31t27.5 13q13 0 27 -12.5t14 -25.5q0 -5 -3 -9z" />
    <glyph glyph-name="parenleft" unicode="(" horiz-adv-x="465" 
d="M474 -193h-161q-252 230 -252 596q0 125 47 286q67 228 183 228q2 0 16 1.5t22 1.5q11 -1 17 -5q29 -23 68.5 -72.5t39.5 -60.5q-97 -208 -97 -474q0 -263 117 -501zM321 891h-75q-94 -120 -131 -254q-28 -101 -28 -232q0 -286 154 -481h70q-40 82 -64 225
q-23 131 -23 254t25 257q27 149 72 231zM285 871q-92 -220 -82 -468q-19 7 -24 7q-10 0 -21 -11v-15q0 -4 17 -23.5t17 -31.5q-2 -58 -5 -115q-1 -76 10 -112l-80 222q15 23 36 75q-15 9 -26 9q-7 0 -15 -2.5t-10 -2.5v53q0 96 48.5 226t105.5 189h29zM194 510q0 5 -6 49
t-6 73q0 27 5 46l-40 -104q-25 -64 -25 -72q0 -1 16.5 -36t16.5 -58q3 16 21 56t18 46z" />
    <glyph glyph-name="parenright" unicode=")" horiz-adv-x="445" 
d="M433 319q0 -122 -45 -284q-66 -234 -179 -234h-44q-10 3 -31 25q-65 67 -83 84q45 78 72 233q25 138 25 262q0 279 -107 507h124q7 0 32 -20l42 -35q107 -83 157 -264q37 -131 37 -274zM311 408q0 275 -159 488h-75q96 -233 96 -491q0 -119 -23 -254q-26 -151 -68 -227
h75q154 204 154 484zM290 403q-11 10 -27 10q-18 0 -18 -18q0 -23 30 -68l-73 -220q7 21 7 44v141q0 17 -1.5 26t-1.5 7q0 -9 34 75q-11 13 -21 13q-23 0 -23 -5q2 250 -89 468h34q47 -37 99 -184q50 -143 50 -225v-64zM270 504l-67 164q18 -16 18 -46q0 -22 -11 -62.5
t-11 -52.5q0 2 19 -27t19 -62q-1 24 33 86z" />
    <glyph glyph-name="asterisk" unicode="*" horiz-adv-x="579" 
d="M551 543q0 -21 -23 -64q-24 -49 -51 -66q-4 2 -33 27q-23 20 -37 20l31 -66q-33 -22 -86 -22q-79 0 -175 83q-101 86 -101 167q0 7 3.5 10t3.5 5q7 -2 29 9l-35 33q-5 36 19 82q28 53 70 65l51 -51q2 2 2 10q0 9 -25 59q64 33 91 33q64 0 162 -82q103 -86 103 -155v-33
q-8 2 -30 -9q2 -6 17 -29q14 -19 14 -26zM469 598v33q-65 -7 -112 29q53 30 99 30q7 0 12 -1v33q1 13 -25.5 43.5t-37.5 34.5q-49 -57 -80 -81l-4 38q10 44 31 77q-45 22 -69 22q-32 0 -64 -17q14 -36 36 -116q-21 -2 -54 33q-30 32 -34 54q-36 -20 -56 -59q-16 -32 -13 -57
q30 -1 65 -11q39 -12 46 -27q-48 -21 -112 -30v-26q0 -21 26 -53.5t44 -36.5q7 23 37 53q26 27 47 39q1 -28 -11 -65l-21 -57q24 -16 64 -16t69 17q-31 61 -31 98q0 20 3 23q19 -16 86 -87q12 9 35.5 41t23.5 42zM448 593q1 -14 -38 -53q-28 45 -106 97q-3 -5 -3 -35
q0 -46 20 -116q-34 -9 -76 0q25 67 25 121q0 20 -3 25l-62 -40q-38 -29 -43 -57q-37 25 -44 76q66 2 137 49q-68 47 -137 49q6 45 38 71q16 -31 111 -97q3 6 3 28q0 52 -25 119q36 2 81 -1q-15 -25 -25 -77l3 -69q83 61 106 97q14 -10 26 -36q10 -21 12 -35q-51 -1 -132 -49
q73 -55 132 -49v-18z" />
    <glyph glyph-name="comma" unicode="," horiz-adv-x="388" 
d="M362 -76q0 -62 -49 -123q-53 -66 -117 -66q-13 0 -114 114v89q8 -3 27.5 2.5t23.5 15.5q-40 30 -53 58q-9 19 -9 52q0 48 23 81q27 36 74 36q90 0 148 -105q46 -83 46 -154zM260 43q0 41 -18 73q-25 42 -74 42q-71 0 -71 -89q0 -74 61 -74q15 0 32 10q-1 -54 -82 -93v-54
q73 10 117 78q35 53 35 107z" />
    <glyph glyph-name="hyphen" unicode="-" horiz-adv-x="379" 
d="M402 266h-288q-48 43 -47 58v134h278q58 -71 57 -78v-114zM331 337v106h-244v-106h244zM310 358h-202v64h202v-64z" />
    <glyph glyph-name="hyphen" unicode="&#x2010;" horiz-adv-x="379" 
d="M402 266h-288q-48 43 -47 58v134h278q58 -71 57 -78v-114zM331 337v106h-244v-106h244zM310 358h-202v64h202v-64z" />
    <glyph glyph-name="period" unicode="." horiz-adv-x="376" 
d="M347 -36q0 -42 -27 -69.5t-68 -27.5q-74 0 -132 73q-54 67 -54 134q0 44 28.5 79.5t73.5 35.5q74 0 131 -93q48 -77 48 -132zM240 76q0 28 -21 55q-23 32 -56 32q-34 0 -54 -32q-17 -26 -17 -55q0 -22 15 -49q21 -37 56 -37q31 0 54 28.5t23 57.5z" />
    <glyph glyph-name="slash" unicode="/" horiz-adv-x="544" 
d="M540 760l-302 -862h-130q-22 27 -72 97l307 861h135zM443 830h-85l-296 -829h95zM418 810l-133 -391q-8 -3 -22 -3h-6q-14 0 -22 -2l143 396h40z" />
    <glyph glyph-name="zero" unicode="0" horiz-adv-x="766" 
d="M754 319q0 -176 -54 -292q-78 -170 -257 -170q-204 0 -308 216q-74 154 -74 335q0 148 56 269q80 174 247 174q211 0 314 -195q76 -144 76 -337zM637 405q0 145 -49 256q-73 165 -231 165q-151 0 -222 -165q-48 -112 -48 -256q0 -153 43 -256q68 -159 227 -159
q158 0 229 149q51 107 51 266zM616 426l-34 4q-21 1 -32 -9q2 -4 22 -38q14 -24 14 -31q0 -6 -24 -85q-27 -90 -35 -124q0 55 -11 132t-11 79q0 1 38 82t38 84q0 34 -26 87l-37 71q-3 -9 -1 -36q2 -32 1 -43q-1 -14 -9.5 -46t-8.5 -38q0 -7 16 -32q19 -30 24 -42v-18
q-34 8 -65 1q0 10 2 35t2 30q0 119 -14 173q-27 103 -108 103q-59 0 -90 -64q-22 -45 -23 -96v-189q-13 15 -36 15q-20 0 -30 -13q4 -8 22 -36q14 -23 14 -30q0 -1 -9.5 -54t-9.5 -93q0 -35 7 -62q-17 43 -40.5 121t-23.5 88q0 6 14 30q20 35 21 38q-14 8 -33 8
q-23 0 -32 -5v27q-1 119 55 221q70 129 194 129q136 0 198 -123q38 -76 61 -251zM454 415q0 -139 -7 -189q-19 -155 -90 -155q-66 0 -85 164q-7 54 -7 180q0 140 7 189q18 140 85 140q71 0 90 -135q7 -45 7 -194zM428 426q0 30 -5 96q-6 79 -12 90q-29 -30 -29 -235
q0 -208 18 -244q11 10 12 10q16 131 16 283zM219 517q0 10 -8.5 50t-8.5 69q0 24 6 47q-8 -8 -38 -72q-32 -70 -32 -91q0 2 19.5 -39t17.5 -58q6 16 26 55q18 35 18 39z" />
    <glyph glyph-name="one" unicode="1" horiz-adv-x="572" 
d="M550 -132h-375q-21 33 -78 103v125q40 6 51 10q31 13 31 45v334q-46 6 -121 135v134q68 -1 91 6q55 16 87 81h135l58 -73q35 -44 35 -51v-608l86 -111v-130zM432 1v75q-7 -1 -15 -1q-33 0 -54 25q-16 21 -17 45v675h-95q-38 -93 -148 -93q-10 0 -21 1v-88h122v-484
q0 -29 -14 -51q-19 -30 -56 -30q-8 0 -16 1v-75h314zM325 423q-11 10 -24 10q-21 0 -21 -13q0 -6 18 -30t18 -31q0 -1 -20 -90.5t-18 -120.5q-3 37 -23 123q-21 83 -21 88q0 6 14 27q18 27 22 35q-5 12 -20 12q-14 0 -25 -10v238h-122v47q11 -2 22 -2q98 0 146 94h54v-377z
M316 517q0 1 -19.5 66t-18.5 90q-5 -21 -26 -91q-18 -58 -18 -65q0 -6 18 -39q20 -38 23 -50q4 16 23 53q18 34 18 36z" />
    <glyph glyph-name="two" unicode="2" horiz-adv-x="729" 
d="M714 43q0 -72 -53.5 -129t-127.5 -57q-58 0 -124 33.5t-85 33.5q-22 0 -37 -17t-12 -39h-111l-77 100q-5 9 -5 70q0 90 22 153q29 81 105 158q-133 108 -133 252q0 116 83 186q76 64 188 64q143 0 249.5 -99t106.5 -242q0 -73 -21 -123q-13 -31 -39 -59q-21 -23 -21 -30
q0 -6 46 -64t46 -63v-128zM387 561q0 30 -30 30q-8 0 -20 -6q-16 -9 -16 -22q0 -9 15.5 -27t28.5 -26q22 33 22 51zM596 155v119h-75q1 -8 1 -21q0 -95 -53 -95q-6 0 -71 18t-72 18q-37 0 -63.5 -14l-51.5 -28q45 85 149 147q134 81 155 102q71 70 71 198q0 104 -72 168
q-68 59 -170 59q-101 0 -169 -58q-73 -61 -73 -164q0 -51 18 -94q25 -61 76 -61q34 0 59 26.5t25 62.5q0 38 -22 52l-42.5 18.5t-21.5 38.5q0 42 39 71q36 26 80 26q52 0 81 -44q24 -38 24 -91q0 -98 -81 -178l-149 -133q-81 -85 -81 -194v-103h76q2 25 18 40t36 15
q28 0 94.5 -33t104.5 -33q66 0 113 50t47 115zM566 601q0 -99 -63 -178q-18 10 -31 10q-60 0 -55 -80q-69 -14 -133 -55q-75 -50 -109 -119q24 76 99 149.5t149 93.5q-5 11 -28 11q-14 0 -33 -9q76 82 76 188q0 67 -31 108q-34 45 -99 45q-53 0 -95 -35q-45 -36 -45 -88
q0 -42 24 -53l44 -10q24 -8 24 -44q0 -24 -20.5 -42.5t-40.5 -18.5q-72 0 -72 127q0 97 63 150q57 49 152 49q93 0 156 -52q68 -56 68 -147zM530 533q0 8 -44 140q2 -64 -9 -99q-3 -11 -16.5 -30t-15.5 -26q-5 -15 -4 -44t-2 -40q30 18 59 46q32 33 32 53z" />
    <glyph glyph-name="three" unicode="3" horiz-adv-x="737" 
d="M724 120q0 -123 -93 -197q-82 -66 -195 -66q-146 0 -251 98q-109 101 -109 249q0 145 118 161q-118 112 -118 242q0 117 88 185q77 59 183 59q138 0 248 -91q119 -99 119 -240q0 -95 -82 -166q92 -104 92 -234zM403 566q0 46 -33 46q-11 0 -27.5 -13t-16.5 -23
q0 -8 19 -33q26 -38 29 -43q29 28 29 66zM607 227q0 129 -107 204q50 25 75 81q21 46 21 100q0 100 -77 160q-70 54 -170 54q-98 0 -169 -58q-78 -63 -78 -164q0 -140 89 -140q31 0 56 17q33 22 33 64q0 37 -22 54l-42.5 21t-21.5 35q0 40 39 66q35 23 78 23q64 0 94 -52
q23 -39 23 -98q0 -48 -20 -88q-26 -51 -76 -58v-80q101 -3 101 -141q0 -59 -24 -96q-29 -44 -90 -44q-20 0 -55 14q-50 20 -50 52q0 1 30.5 36.5t30.5 72.5q0 36 -22 55t-57 19q-52 0 -76 -47q-18 -35 -18 -88q0 -112 88 -168q69 -43 174 -43q109 0 176 63.5t67 173.5z
M413 201q0 23 -73 125q-27 -13 -34 -11q32 -56 95 -157q12 40 12 43zM576 609q0 -60 -48 -129q-3 -4 -36 -30q-22 -17 -19 -37q-35 11 -33 11q-8 0 -17 -5q107 73 107 103t-9 78q-11 52 -23 78q1 -10 1 -21q0 -84 -86 -244q2 -1 51 -15q41 -11 59 -37q7 -11 7 -60
q0 -36 -9.5 -74l-18.5 -74q3 111 -57 179q-4 5 -4.5 22t-3.5 25q-7 14 -29 29t-33 15q-13 0 -22 -10q20 18 58 60q38 49 38 121q0 171 -141 171q-48 0 -90 -28q-50 -33 -50 -85q0 -38 46 -53t46 -54q0 -30 -27 -48q-20 -13 -39 -13q-67 0 -67 125q0 99 72 150q58 41 145 41
q89 0 154 -44q78 -52 78 -147z" />
    <glyph glyph-name="four" unicode="4" horiz-adv-x="741" 
d="M734 102h-109q-3 -3 -3 -15q0 -7 38 -55t38 -54v-110h-360q-85 93 -85 189q0 18 2 41q-45 5 -126 5q-83 104 -83 119v113l312 506h171l58 -73q35 -44 35 -51v-362l112 -132v-121zM616 235v98h-112v487h-136l-296 -485v-102h290v-57q0 -33 -11 -60q-17 -42 -53 -42
q-8 0 -17 2v-75h304v75q-8 -1 -15 -1q-67 0 -67 99q0 4 3 59zM483 423q-11 10 -22 10q-7 0 -12.5 -2.5t-6.5 -2.5q-4 -3 -4 -10q0 -6 18 -30.5t18 -30.5q0 -5 -20 -69t-20 -107q0 -16 2 -31q-7 37 -27 127q-17 71 -17 80q0 6 14 25q18 26 23 34v13q-2 0 -10 2t-14 2
q-10 0 -22 -10v216q-2 4 -9 14h-19l-148 -230q-10 10 -21 10l-27 -9l230 376h94v-377zM361 332h-177l177 290v-290zM474 517q0 2 -20.5 66t-22.5 95q0 -31 -19.5 -95t-19.5 -66q0 -3 19 -33.5t19 -55.5q6 18 26 55q18 33 18 34z" />
    <glyph glyph-name="five" unicode="5" horiz-adv-x="735" 
d="M729 212q0 -131 -80 -236q-90 -119 -231 -119q-130 0 -238.5 108.5t-108.5 235.5q0 116 62 144q-2 6 -16.5 25t-14.5 25l31 445h467l50 -63q43 -57 43 -76q0 -10 -5 -48t-5 -56q0 -28 9 -35l-167 -4q106 -60 159 -162q45 -86 45 -184zM612 296q0 114 -47 187
q-60 93 -183 93q-55 0 -91 -14l-62 -27v34q0 1 15 127h327q-1 47 0 124h-417l-26 -412h85q15 28 50 46q31 15 58 15q66 0 97 -70q20 -49 20 -119q0 -193 -125 -193q-15 0 -49 15q-45 21 -45 48q0 9 28 41.5t28 68.5q0 34 -21.5 55t-59.5 21q-97 0 -97 -132q0 -110 83 -167
q69 -47 177 -47q129 0 197 98q58 83 58 208zM413 250q0 66 -51 66q-8 0 -24.5 -9.5l-31.5 -17.5l89 -121q18 53 18 82zM566 347q0 -10 -22.5 -79.5t-41.5 -119.5q1 61 -13.5 134.5t-14.5 71.5q0 3 15.5 26.5t15.5 45.5q0 104 -113 104q-40 0 -96 -18q153 -19 203 -93
q-17 9 -35 9q-6 0 -29 -10q-39 71 -114 71q-72 0 -119 -55h-48l25 366h368q-1 -40 1 -85h-330q-1 -17 -7 -66q-5 -37 -5 -89q0 -30 2 -71q99 67 174 67q50 0 100 -31q63 -39 83 -107q-17 10 -30 10q-17 0 -25 -8q10 -22 37 -35q19 -10 19 -38z" />
    <glyph glyph-name="six" unicode="6" horiz-adv-x="755" 
d="M729 120q0 -122 -88 -195q-81 -68 -198 -68q-202 0 -303 195q-74 143 -74 323q0 173 58 297q83 179 268 179q125 0 218 -83q99 -86 99 -210q0 -134 -102 -169q69 -70 97 -134q25 -58 25 -135zM612 255q0 95 -49 162q-58 77 -163 77q-48 0 -76 -13q-34 -15 -61 -58l-3 94
q7 73 35 133q43 94 118 94q87 0 87 -46q0 -24 -23 -31t-45 -13q-24 -15 -24 -55q0 -37 27 -57q22 -17 57 -17q51 0 78 47q21 38 21 91q0 82 -61 126q-52 37 -132 37q-172 0 -251 -165q-55 -116 -55 -284q0 -140 43 -238q67 -149 222 -149q121 0 188 68t67 197zM566 663
q0 -36 -15 -70q-21 -48 -59 -48q-26 0 -42.5 16t-16.5 35q0 30 43.5 48.5t43.5 53.5t-38 55q-31 17 -69 17q-88 0 -140 -110q-40 -87 -40 -185q0 -33 6 -49q-22 7 -33 7q-5 0 -13.5 -2t-13.5 -2v16q1 -2 10 15q12 23 21 65q12 61 16 153q-78 -141 -78 -166
q0 -43 35.5 -109.5l35.5 -66.5q0 -23 -8 -52.5t-8 -53.5q0 -32 10 -82q-8 7 -41 79q-34 78 -34 102q0 6 11 38q15 43 19 58q-15 8 -28 8q-11 0 -21 -10q14 165 72 262q72 120 207 120q72 0 117 -33q51 -38 51 -109zM561 339q0 -65 -55 -196q2 5 2 28q0 85 -20 165
q-26 107 -75 107q-6 0 -19.5 -5t-18.5 -5q-7 0 -19.5 5t-19.5 5q-23 0 -45 -14q35 32 61 40q14 5 48 5q38 0 50 -3q30 -9 66 -44q-9 11 -25 12h-23q0 -3 -3.5 -4.5t-5.5 -3.5l52 -38q50 -39 50 -54zM459 245q0 -57 -19 -96q-24 -52 -76 -52q-53 0 -77 56q-17 38 -17 92
q0 49 17 89q24 58 77 58q95 0 95 -147zM428 217q0 48 -25 48q-26 0 -26 -59q0 -50 24 -63q27 31 27 74z" />
    <glyph glyph-name="seven" unicode="7" horiz-adv-x="766" 
d="M759 701q0 -62 -59 -181q-97 -195 -111 -228q-59 -147 -59 -274v-150h-238q-21 29 -70 90q-14 17 -14 33v16q1 14 1 26q0 114 42 254q38 127 101 245q-15 8 -28 8q-36 0 -51 -78q-4 -45 -9 -89h-145l-78 93v380h121q5 -10 5 -36q2 0 4.5 -2.5t9.5 -2.5q-7 0 51.5 23
t114.5 23q50 0 86 -13q19 -7 45 -25q19 -13 32 -13q14 0 25 19q9 16 6 26h125l54 -70q39 -54 39 -74zM642 756v64h-86q2 -6 2 -11q0 -29 -46 -29q-26 0 -66.5 25.5t-101.5 25.5q-49 0 -114.5 -23t-58.5 -23q-22 0 -29 40h-75v-335h111q-3 45 12 105q25 98 90 98
q36 0 169 -49q-59 -80 -131 -246q-83 -193 -83 -294v-103h177q0 2 1 11v11q-3 92 16 208q7 38 26 92q11 31 106 230q81 170 81 203zM616 741q1 -30 -65 -162l-79 -156q-9 5 -31 5h-20q-8 -3 -8 -15q0 -7 10 -27t10 -27q0 1 -50 -81q-53 -85 -60 -125q2 13 2 30q0 13 -1.5 40
t-1.5 40q0 104 81 162q-24 8 -51 -1q46 84 127 250q-26 4 -110 23q-75 17 -84 17q-74 0 -109 -87q-24 -62 -19 -117h-70v290h34q12 -41 42 -41l64.5 23t114.5 23q58 0 101 -25.5t72 -25.5q22 0 42.5 12.5t19.5 32.5h39v-58zM534 662l-82 -120q-48 -70 -48 -100q0 -12 6 -19
q67 52 93 129z" />
    <glyph glyph-name="eight" unicode="8" horiz-adv-x="803" 
d="M780 143q0 -151 -108 -225q-88 -61 -226 -61q-150 0 -256 93q-114 100 -114 256q0 131 102 210q-76 75 -76 196q0 115 93 182q80 57 190 57q132 0 241 -85q118 -92 118 -226q0 -120 -66 -171q102 -87 102 -226zM663 227q0 128 -128 214q42 27 69.5 81t27.5 105
q0 94 -83 150q-72 49 -167 49q-96 0 -171 -52q-89 -62 -89 -165q0 -48 22 -99q26 -60 70 -95q-112 -84 -112 -209q0 -117 88 -173q69 -43 182 -43q119 0 193 45q98 60 98 192zM607 624q0 -52 -22 -93q-28 -52 -103 -113q-27 15 -61 15q-26 0 -54 -13q31 -15 99 -25
q62 -9 85 -24q35 -24 35 -82l-2 -141q0 76 -78 153l-149 125q-84 71 -93 126q-44 23 -53 131q-27 -78 -27 -127q0 -50 64 -87l88 -39q-21 0 -43 -1q-30 -3 -40 -16q-110 89 -110 196q0 99 83 150q66 41 159 41q89 0 149 -39q73 -47 73 -137zM505 204q0 -55 -47 -84
q-38 -23 -88 -23q-66 0 -109 33q-47 37 -47 99q0 35 28 74q31 44 69 44q40 0 114 -49q80 -53 80 -94zM515 650q0 54 -42 86q-38 29 -91 29q-49 0 -85 -27q-42 -31 -42 -86q0 -36 42 -90q44 -57 83 -57q33 0 84 55.5t51 89.5zM474 191q0 18 -18.5 38.5t-40.5 20.5
q-21 0 -44.5 -26t-23.5 -43q0 -18 19 -36t39 -18q27 0 48 19t21 45zM494 652q0 -28 -42 -75t-70 -47q-31 0 -71 53q-36 48 -36 69q0 45 39 69q30 18 68 18q39 0 74 -23q38 -27 38 -64zM448 608v17q-12 12 -25 12q-15 0 -34 -12q-22 -14 -22 -31q0 -22 23 -33q59 29 58 47z
" />
    <glyph glyph-name="nine" unicode="9" horiz-adv-x="758" 
d="M749 349q0 -172 -64 -307q-88 -185 -267 -185q-134 0 -232.5 97.5t-98.5 223.5q0 46 17 82q24 53 80 64q-113 100 -113 242q0 127 64 202q70 83 204 83q206 0 319 -174q91 -142 91 -328zM632 405q0 147 -51 257q-76 164 -245 164q-120 0 -182 -73q-57 -67 -57 -187
q0 -93 52 -162q60 -78 159 -78q88 0 142 67q1 -7 0 -67q-1 -67 -1 -68q0 -57 -28 -111q-36 -71 -97 -71q-32 0 -62 14q-38 16 -38 43q0 13 23 40.5t23 55.5q0 29 -24.5 48t-54.5 19q-43 0 -64 -42q-15 -31 -15 -73q0 -88 73 -143q64 -48 149 -48q165 0 242 149
q56 109 56 266zM411 223q-10 -10 -33 -10q-19 0 -62 10q20 -29 69 -90q21 42 26 90zM606 423q-19 10 -33 10q-17 0 -38 -13q36 -63 36 -84q0 -23 -36 -100l-39 -78q7 24 7 57q0 32 -7 75.5l-7 43.5q0 2 18 31t18 55q-13 13 -38 13q-15 0 -43 -22q-39 -33 -55 -42
q-38 -22 -78 -22q-85 0 -142 69q-52 64 -52 147q0 108 52 170q58 67 167 67q125 0 203 -108q67 -94 67 -205v-64zM571 517q0 22 -70 161q0 -41 -6 -96t-6 -67q0 -7 18 -39q19 -35 23 -48q41 67 41 89zM459 579q0 63 -21 113q-29 73 -94 73q-115 0 -115 -186q0 -171 113 -171
q63 0 93 57q24 45 24 114zM433 579q0 -151 -89 -151q-56 0 -79 61q-15 39 -15 92q0 54 17 98q24 65 77 65q89 0 89 -165zM408 545q1 51 -23 51q-33 0 -33 -66q0 -53 29 -64q20 31 24 46q3 8 3 33z" />
    <glyph glyph-name="colon" unicode=":" horiz-adv-x="357" 
d="M331 341q0 -45 -18 -74q-24 -38 -71 -38q-75 0 -132 81q-49 68 -49 126q0 40 29.5 77t72.5 37q75 0 126 -80q42 -67 42 -129zM331 -28q0 -105 -89 -105q-73 0 -129 81q-47 68 -47 126q0 43 23 76q27 39 74 39q76 0 127 -88q41 -70 41 -129zM240 438q0 30 -19 56
q-22 31 -55 31q-37 0 -58 -32q-16 -25 -16 -55q0 -22 15 -49q20 -37 56 -37q32 0 54.5 26t22.5 60zM240 76q0 30 -19 56q-22 31 -55 31q-34 0 -56 -32q-18 -27 -18 -55q0 -21 16 -49q22 -37 55 -37q32 0 54.5 27.5t22.5 58.5z" />
    <glyph glyph-name="semicolon" unicode=";" horiz-adv-x="381" 
d="M336 344q0 -46 -21 -78q-26 -37 -73 -37q-73 0 -128 80q-48 69 -48 127q0 44 28.5 79t73.5 35q72 0 124 -82q44 -69 44 -124zM367 -84q0 -59 -50 -119q-53 -62 -113 -62q-9 0 -122 114v89q35 8 51 19q-47 46 -57 66q-5 11 -5 43q0 49 22 81q26 36 75 36q88 0 150 -110
q49 -89 49 -157zM240 438q0 30 -17 55q-21 32 -57 32t-54 -31q-15 -24 -15 -56q0 -28 15 -54q19 -32 54 -32q30 0 52 26.5t22 59.5zM260 43q0 41 -19 73q-24 42 -73 42q-71 0 -71 -89q0 -74 61 -74q15 0 32 10q4 -26 -26.5 -58t-55.5 -29v-55q67 9 112 67q40 53 40 113z" />
    <glyph glyph-name="question" unicode="?" horiz-adv-x="696" 
d="M688 525q0 -77 -55 -140l-103 -107q-56 -72 -56 -174q0 -19 23 -66t23 -79q0 -39 -27 -68t-67 -29q-81 0 -144 78q-58 70 -58 139q0 77 46 97q-25 21 -25 67q0 9 1 26v26q0 19 -3 33q-5 21 -46 63l-73 74q-42 47 -42 142q0 109 82 175q75 59 180 59q126 0 231 -88
q113 -95 113 -228zM566 627q0 94 -68 146q-61 48 -156 48q-91 0 -157 -49q-78 -58 -78 -160q0 -52 18 -94q27 -64 87 -64q33 0 63.5 25t30.5 61q0 44 -25 59l-48 16t-24 35q0 38 36 65q32 24 66 24q102 0 102 -120q0 -48 -37 -107l-69 -97q-37 -54 -36 -92v-88h100
q8 91 59 152l90 94q46 58 46 146zM398 82q0 29 -17 55q-21 31 -57 31q-33 0 -56 -26t-23 -60q0 -29 20 -56q23 -31 59 -31q30 0 52 26.5t22 60.5zM545 627q0 -27 -33 -106q-42 -98 -86 -98q-5 0 -14 4t-13 4q-3 0 -6 -2l93 70q19 19 19 69q0 62 -23 120q-7 -52 -17 -82
q-14 -43 -51 -105q-15 -26 -90 -251q-2 9 -14 45q-9 31 -9 39q0 23 81 91l-9.5 4.5t-16.5 4.5q-8 0 -16 -5q55 65 73 97q25 44 25 93q0 64 -32 102t-95 38q-47 0 -83 -29q-39 -31 -39 -80q0 -38 23 -51q22 -8 45 -15q23 -11 23 -44q0 -29 -26 -49q-22 -17 -42 -17
q-44 0 -68 57q-17 40 -17 81q0 92 73 144q61 44 144 44q78 0 135 -42q66 -48 66 -131z" />
    <glyph glyph-name="A" unicode="A" horiz-adv-x="844" 
d="M825 -132h-335q-8 20 -28 40q-4 -7 -4 -40h-329l-93 118v110q13 -1 33 6q25 10 31 24q58 136 113 345q93 350 99 370h138q11 0 78 -62q71 -65 82 -93q27 -71 66 -248q43 -198 63 -263q39 -127 86 -146v-161zM708 1v75q-17 1 -38 15t-27 30q-44 114 -96 317l-94 382h-121
q-18 -61 -100 -367q-59 -219 -106 -337q-6 -16 -29.5 -29t-34.5 -11v-75h274v75q-71 0 -71 92q0 13 7 45q8 36 17 52h150q25 -85 25 -112q0 -70 -76 -77v-75h320zM544 150q-10 33 -52 122q-38 82 -38 87q0 14 25 52v13q-15 9 -25 9q-9 0 -19 -10l-60 260q-48 -162 -71 -260
q-9 10 -26 10q-4 0 -27 -9l97 376h84l102 -377q-10 10 -24 10q-11 0 -26 -7q28 -5 37 -54q5 -24 9 -107q3 -77 14 -115zM412 383h-95l53 198q43 -153 42 -170v-28zM500 517q0 4 -33 63q-36 67 -48 103v-17q-8 -97 5 -149q6 -22 28 -48q28 -34 30 -38q0 14 9 48.5t9 37.5z
" />
    <glyph glyph-name="B" unicode="B" horiz-adv-x="815" 
d="M800 94q0 -71 -42 -141q-52 -85 -134 -85h-500l-78 108v120l51 12q30 12 30 48v514q0 23 -26.5 39.5t-53.5 14.5v117h429q135 0 231 -118q88 -108 88 -231q0 -55 -18 -96q-17 -36 -58 -83q81 -102 81 -219zM683 242q0 121 -76 184q71 71 71 178q0 88 -52 149
q-58 67 -155 67h-399v-75q10 4 19 4q26 0 46 -34q16 -29 16 -56v-498q0 -35 -17 -59q-22 -30 -64 -26v-76h435q92 0 140 96q36 70 36 146zM658 607q0 -93 -85 -184q-1 5 -15 11h-28l76 60q16 17 16 59q0 74 -28 125l-25 -114q-22 -98 -54 -133q76 -37 92 -66q10 -16 10 -74
q0 -38 -4 -56q-4 -22 -25 -85q4 13 4 31q0 87 -60 172q-4 23 -7 46q-7 34 -46 34q-6 0 -16.5 -5t-16.5 -5q-5 0 -18.5 5t-19.5 5q-13 0 -21 -5t-12 -5q-7 0 -19.5 5t-19.5 5q-12 0 -20 -5t-13 -5q-6 0 -19 5t-19 5q-14 0 -33 -9q1 -10 17 -34.5t16 -30.5l-20 -87.5
t-18 -123.5q-3 37 -23 123q-20 83 -20 88q0 6 14 27q17 27 21 35q-4 12 -23 12q-10 0 -22 -10v272q-1 25 -27 52t-54 23v30h357q94 0 151 -52.5t57 -140.5zM525 247q0 -159 -148 -159q-21 0 -44 4q-11 10 -21.5 30t-10.5 29v236h124q52 0 80 -56q20 -40 20 -84zM551 594
q0 155 -159 155q-62 0 -86 -17q-31 -21 -30 -83v-190h164q51 0 84 51q27 41 27 84zM265 522q0 2 -19 61t-19 85q-43 -141 -43 -148q0 -3 16 -33q18 -35 24 -59q6 24 25 60q16 32 16 34zM494 212q0 37 -22 42h-54v-108q0 -8 9.5 -16t14.5 -8q52 31 52 90zM525 594
q0 -37 -20 -71q-26 -44 -70 -44h-134v186q-1 21 32 64q29 3 54 3q72 0 105 -32.5t33 -105.5zM494 561q0 17 -3 23q-8 12 -32 12q-41 0 -41 -23v-68h27q17 0 33 17t16 39z" />
    <glyph glyph-name="C" unicode="C" horiz-adv-x="790" 
d="M765 161q0 -135 -87 -219.5t-229 -84.5q-373 0 -373 563q0 171 39 267q66 164 247 164q30 0 96.5 -23t61.5 -23q18 0 18 21q0 26 -2 20h115l68 -75q40 -46 40 -54v-411h-171l-56 51q-31 30 -41 58l-12 121q-14 106 -51 106q-16 0 -27 -24q-9 -18 -9 -29v-429
q0 -13 14 -28t25 -15q31 0 48 81q12 58 11 97h171l57 -66q47 -55 47 -68zM642 226v43h-126q2 -77 -26 -129q-33 -64 -103 -64q-60 0 -91 55q-26 44 -26 105v379q0 47 20 81q26 43 74 43q87 0 128 -140q24 -83 24 -160h126v381h-86q2 -30 -5 -37q-3 -3 -18 -3q-8 0 -66.5 23
t-99.5 23q-171 0 -232 -159q-33 -87 -33 -247q0 -185 33 -271q62 -159 247 -159q100 0 177 63q83 69 83 173zM621 459h-85q2 87 -31 177q-47 129 -141 129q-45 0 -79.5 -34.5t-35.5 -79.5v-209q-12 14 -32 14q-16 0 -28 -10q3 -7 21 -35q14 -21 14 -29q0 -3 -13.5 -63
t-13.5 -99q0 -25 5 -44l-33 93q-21 67 -21 103q0 15 11.5 33t24.5 36q-6 13 -31 13q-21 0 -30 -5v98q0 97 77 175t170 78q44 0 100 -23t73 -23q15 0 18 2q12 7 21 38h39v-335zM224 522q0 22 -8 65t-8 65q0 19 4 36q-19 -39 -41.5 -95t-22.5 -65q0 -8 16 -35q19 -33 22 -39
q3 6 23 38q15 25 15 30z" />
    <glyph glyph-name="D" unicode="D" horiz-adv-x="827" 
d="M826 301q0 -60 -27 -152q-35 -117 -93 -189q-74 -92 -174 -92h-408l-78 108v120q31 -3 56 13t25 47v514q0 23 -26.5 39.5t-53.5 14.5v117h424q130 0 220 -116q69 -90 107 -236q28 -109 28 -188zM709 413q0 138 -41 243q-63 164 -207 164h-389v-75q10 4 19 4q26 0 46 -34
q16 -29 16 -56v-503q0 -77 -81 -85v-71h353q144 0 224 164q60 122 60 249zM692 423q-16 10 -34 10q-17 0 -31 -8q36 -48 36 -68q0 -34 -42 -109q-32 -57 -64 -100q21 60 27 105q3 19 -7 107q17 17 40 51v14q-14 8 -31 8q-13 0 -24 -10q-7 96 -15 193q-21 133 -91 133h-137
q-34 -31 -39 -58q-2 -23 -5 -47l4 -221q-9 10 -27 10q-23 0 -23 -13q0 -6 18 -31.5t18 -31.5q0 -2 -22 -93q-20 -86 -16 -111q0 38 -21.5 121.5t-21.5 82.5q0 6 16 30q21 30 24 38q-15 8 -28 8q-10 0 -22 -10v272q-1 25 -27 52t-54 23v30h363q130 0 190 -146q33 -82 46 -231
zM535 428q0 -113 -26 -200q-42 -136 -137 -136q-33 0 -47 6q-24 12 -24 48v534q0 22 26 48q37 15 67 15q141 0 141 -315zM663 517q0 20 -75 166q4 -18 4 -40q0 -30 -8 -74t-8 -49q0 -6 20 -39q21 -36 26 -53q41 71 41 89zM510 436q0 160 -44 160q-17 0 -31 -8
q-17 -10 -17 -25v-425h24q68 125 68 298zM265 520q0 1 -19.5 70t-18.5 93q-5 -30 -25 -97q-18 -61 -18 -66q0 -7 17 -39q21 -38 26 -53q2 16 20 52t18 40z" />
    <glyph glyph-name="E" unicode="E" horiz-adv-x="729" 
d="M698 712v-309h-136q-31 37 -86 113v49q-2 42 -30 42t-28 -51q0 -22 60.5 -109t55.5 -122q9 1 16 1q34 0 59 -22q16 -15 42 -54q29 -44 47 -63v-319h-574l-78 108v120q81 2 81 60v509q0 22 -21 41q-24 22 -59 18v117h553q0 -1 53 -66q45 -56 45 -63zM270 517
q-34 47 -43 176q-2 -108 -43 -176q30 -31 43 -94q1 47 43 94zM580 536v223h-21v-199h-35q-4 79 -18 116q-21 58 -80 89h-41q-39 0 -73 -28q-37 -30 -36 -72v-208h132l-4 -35q-83 8 -174 0q5 -10 24 -34q16 -21 16 -26q0 5 -43 -214q-5 27 -25 123q-18 85 -18 91t16 27
q20 24 24 32q-4 4 -23 5q-20 1 -24 -3l-4 263q-5 75 -81 87v26h469v-34h19v55h-508v-75q9 4 17 4q25 0 46 -34q18 -30 18 -56v-498q0 -86 -81 -85v-75h508v294h-80q2 -93 -11 -134q-24 -79 -104 -79q-24 0 -51 14q-33 18 -34 49v243h127v93h-127v200q1 29 31 45q24 13 51 13
q64 0 95 -59q24 -47 24 -117q0 -14 -1 -27h80zM474 196v58h-54v-120l22 -6q7 8 19.5 35.5t12.5 32.5z" />
    <glyph glyph-name="F" unicode="F" horiz-adv-x="738" 
d="M734 403h-152l-81 113q0 30 -1 59q-5 57 -36 57q-41 0 -41 -66q0 -40 42 -91q76 -91 85 -105v-114h-127v-157q0 -4 40.5 -56.5t40.5 -59.5v-115h-380l-78 108v120l51 12q30 12 30 48v509q0 23 -23.5 39t-56.5 21v116h594q93 -124 93 -129v-309zM616 541v279h-544v-75
q9 4 17 4q25 0 46 -34q18 -30 18 -56v-498q0 -86 -81 -85v-75h325v75q-32 -2 -64 19.5t-33 49.5v243h133v98h-133v190q1 32 32 49q25 14 55 14q64 0 102.5 -47.5t38.5 -117.5q0 -16 -2 -33h90zM596 561h-50q2 16 2 30q0 80 -46 127t-115 47q-45 0 -77 -25q-35 -26 -35 -69
v-212h132q-2 -20 5 -35q-37 9 -60 9q-7 0 -22 -5t-22 -5q-5 0 -19 5t-21 5q-39 0 -39 -10q0 -6 20.5 -31.5t20.5 -32.5q0 1 -24 -92q-23 -89 -19 -114q0 35 -21.5 121t-21.5 85q0 6 16 27q20 26 24 35q-6 12 -25 12q-13 0 -25 -10v267q-1 29 -24 56q-26 30 -57 24v29h503
v-238zM265 522q0 1 -19 66t-19 95q1 -32 -21 -97.5l-22 -65.5q0 -5 15 -33q19 -35 28 -59q4 19 21 55t17 39z" />
    <glyph glyph-name="G" unicode="G" horiz-adv-x="810" 
d="M820 138h-49q-37 -4 -37 -23v-247h-75q-23 25 -42 25q-4 0 -59.5 -18t-103.5 -18q-234 0 -329 222q-59 137 -59 341q0 172 39 267q67 164 252 164q37 0 78 -11q49 -13 73 -35h13q11 18 10 41h115l68 -75q40 -46 40 -54v-362l66 -71v-146zM510 399q-29 23 -36 89
q-4 52 -9 104q-9 50 -44 50q-9 0 -21.5 -12.5t-12.5 -21.5v-442q0 -12 17.5 -28t33.5 -16q21 0 33 27q8 20 8 45q0 42 -24 51q-20 4 -41 9v145h96zM697 276v95h-258v-95q66 6 66 -75q0 -49 -24 -83q-30 -42 -89 -42q-48 0 -86 45q-36 42 -36 90v445q0 34 28.5 58.5
t60.5 24.5q74 0 117 -112q31 -84 31 -166q0 -16 -2 -22h131v381h-85q-6 -33 -12 -38q-2 -2 -17 -2q1 0 -58 23t-107 23q-172 0 -232 -154q-33 -86 -33 -249q0 -183 32 -269q62 -164 248 -164q51 0 98.5 15t46.5 15q17 0 30 -19h69v226q1 51 62 51q11 0 19 -2zM611 465h-85
q4 21 -8 88q-15 85 -48 139q-43 73 -111 73q-48 0 -83 -40q-31 -36 -32 -80v-216q-26 8 -56 0q3 -13 17 -42t14 -35q0 2 -11 -95q-10 -89 -6 -109l-64 209q23 33 41 68q-15 8 -34 8q-23 0 -32 -5v109q-1 101 70 180q74 83 179 83q55 0 100.5 -23t65.5 -23q37 0 44 40h39
v-329zM219 520q0 2 -8 46t-8 75q0 24 4 42q-69 -139 -69 -163q0 -2 19.5 -35.5t23.5 -56.5q2 16 20 52t18 40z" />
    <glyph glyph-name="H" unicode="H" horiz-adv-x="879" 
d="M856 -132h-335l-24 25q-3 -3 -3 -25h-370l-78 108v120l51 12q30 12 30 48v509q0 23 -23.5 39t-56.5 21v116h716l93 -124v-105q-22 3 -49 -12q-32 -18 -32 -46v-481q0 -8 29 -41l52 -59v-105zM489 505v106h-27q-14 1 -29 -16t-15 -27v-63h71zM738 745v75h-309v-75
q9 3 18 3q28 0 50 -31q18 -26 18 -47v-190h-220v160q1 37 14 67q19 40 56 40q8 0 16 -2v75h-309v-75q9 4 17 4q25 0 46 -34q18 -30 18 -56v-503q0 -29 -15 -53q-18 -30 -48 -30q-9 0 -18 3v-75h309v75q-10 -3 -19 -3q-36 0 -54 42q-12 28 -13 60v186h220v-215
q0 -33 -22.5 -52t-50.5 -19q-7 0 -13 1v-75h309v75q-7 -2 -13 -2q-26 0 -48 27q-19 24 -19 44v526q0 29 18.5 52t47.5 23q7 0 14 -1zM489 145v84h-70v-127h26q13 0 28.5 13t15.5 30zM718 770q-34 -2 -57 -20q-24 -21 -25 -54v-273q-11 10 -22 10q-23 0 -23 -13
q0 -6 18 -31.5t18 -31.5t-19 -80q-21 -80 -25 -114q2 23 -18 107l-20 84q0 6 14 29q19 31 22 37q-15 13 -41 13q-20 0 -66 -5t-69 -5q-41 0 -107 6q-1 1 -17 3q-12 2 -20 2q-19 0 -29 -9q1 -11 17 -38t16 -33l-20.5 -84t-17.5 -102q-6 51 -26 121q-17 64 -17 68q0 5 16 30
q20 29 24 38q-15 8 -28 8q-7 0 -13.5 -2t-8.5 -2v261q-1 28 -24 56q-26 30 -57 24v29h263v-29q-33 -4 -57 -27t-24 -62v-222h260v226q0 40 -28 66q-26 23 -58 19v30h269v-30zM627 520q0 2 -21 66t-22 92q1 -29 -19 -93t-20 -65q0 -3 17 -33q18 -34 24 -59q6 25 24 59
q17 31 17 33zM265 522q0 2 -19.5 65.5t-18.5 90.5q-6 -34 -26 -97q-17 -55 -17 -61q0 -2 44 -92q-3 22 17 57t20 37z" />
    <glyph glyph-name="I" unicode="I" horiz-adv-x="522" 
d="M499 -132h-375l-78 108v120q34 -1 57.5 14t23.5 46v509q0 22 -21 41q-24 22 -59 18v117h359l93 -124v-105q-23 4 -50 -11q-31 -17 -31 -42v-486q0 -5 40.5 -52t40.5 -54v-99zM381 1v75q-9 -2 -18 -2q-67 0 -67 101v470q0 34 14 66q19 39 49 39q10 0 22 -5v75h-309v-75
q6 1 11 1q31 0 50.5 -27.5t19.5 -59.5v-503q0 -29 -15 -53q-18 -30 -48 -30q-9 0 -18 3v-75h309zM356 770q-30 -3 -57 -34.5t-24 -59.5l4 -253q-9 10 -27 10q-23 0 -23 -13q0 -6 18 -31.5t18 -31.5q0 -2 -19 -87t-19 -120q0 36 -21.5 122.5t-21.5 84.5q0 7 14 25
q10 15 21 29v14q-7 8 -20 8t-25 -10v267q-1 25 -22 52q-26 32 -59 28v29h263v-29zM270 517q-36 53 -43 161q-11 -58 -29 -110q-14 -44 -14 -48q0 -8 14 -36q28 -53 29 -56q4 58 43 89z" />
    <glyph glyph-name="J" unicode="J" horiz-adv-x="732" 
d="M713 612q-7 3 -14 3q-24 0 -45.5 -25t-21.5 -47v-439q0 -88 -67 -164q-73 -83 -170 -83q-154 0 -255 114q-94 105 -94 248q0 65 23 106q30 52 92 52q43 0 82 -36q26 -23 82 -97q6 -2 22 14v407q0 23 -24 39t-57 21v121h354l93 -129v-105zM601 750v70h-310v-70
q33 -1 55 -21q26 -24 26 -70v-386q0 -61 -18 -108q-26 -68 -81 -68q-33 0 -57 16q-27 19 -27 50q0 25 28 56t28 69q0 28 -29 47q-25 17 -50 17q-52 0 -77 -47q-18 -35 -18 -86q0 -101 54 -162q59 -67 171 -67q100 0 159.5 62t59.5 164v455q0 71 86 79zM575 765q-8 3 -16 3
q-30 0 -49 -35q-15 -29 -16 -63l4 -247q-9 10 -27 10q-22 0 -22 -13q0 -7 14 -30q19 -31 21 -36l-59 -206q4 50 -9 128q-13 84 -13 81q0 6 14 29q19 31 21 35q-4 12 -23 12q-10 0 -22 -10v257q-1 20 -17 51q-21 38 -47 38q-9 0 -17 -4v29h263v-29zM484 517q0 1 -19 65
t-19 91q-3 -16 -25 -87q-18 -58 -18 -69q0 -6 17 -39q20 -38 24 -50q4 17 23 53q17 33 17 36z" />
    <glyph glyph-name="K" unicode="K" horiz-adv-x="882" 
d="M871 -132h-350l-24 25q-3 -3 -3 -25h-370l-78 108v120q34 -1 57.5 14t23.5 46v514q0 23 -26.5 39.5t-53.5 14.5v117h716l98 -124v-99q-29 -5 -59 -9q-36 -7 -59 -24q-26 -20 -89 -98.5t-63 -86.5q0 -15 127 -196t153 -200v-136zM759 1v75q-45 0 -72 17q-24 14 -127 181
q-101 163 -101 177q0 16 105.5 146t125.5 141.5t48 6.5v75h-309v-70l32 -6q28 -7 28 -20q0 -9 -63 -92q-71 -93 -128 -148q-2 3 -2 151q2 110 86 115v70h-310v-70q7 1 13 1q32 0 52 -35q16 -28 16 -57v-503q0 -29 -15 -53q-18 -30 -48 -30q-9 0 -18 3v-75h309v75
q-13 -7 -25 -7q-35 0 -51 59q-9 37 -9 84q0 37 3 42l55 67q120 -180 120 -214t-29 -34q-7 0 -16 3v-75h330zM718 770q-46 5 -146 -126l-166 -221q-18 10 -29 10q-7 0 -15.5 -1.5t-9.5 -1.5q75 49 117 116q23 35 52 112q-44 -55 -120 -123q-31 -27 -55 -109q40 -24 110 -60
l38 -107q25 -65 55 -111q-35 49 -126 163q-97 122 -102 122q-6 0 -14 -5t-14 -5t-16.5 5t-16.5 5q-31 0 -31 -13q0 -6 18 -31.5t18 -31.5q0 -2 -19 -86t-19 -118q1 29 -21 118.5t-22 87.5q0 5 16 29q20 28 24 37q-15 8 -25 8q-7 0 -15 -2t-10 -2v261q-1 26 -21 52
q-24 33 -60 28v29h263v-29q-33 5 -58 -26q-23 -27 -23 -58v-229q4 -3 10 -3q33 0 134 131q96 126 96 144q0 26 -22 35q-5 2 -39 7v29h264v-30zM265 522l-19.5 66.5t-18.5 94.5q-7 -43 -26 -104q-17 -55 -17 -59q0 -5 11 -26q18 -34 33 -66q-3 22 17 57t20 37z" />
    <glyph glyph-name="L" unicode="L" horiz-adv-x="740" 
d="M734 -132h-610l-78 108v120q81 -4 81 60v509q0 23 -23.5 39t-56.5 21v116h359l93 -124v-105q-5 2 -11 2q-24 0 -47 -21t-23 -44v-388q13 -23 43 -23q52 0 52 108q0 15 -3 44h126l60 -77q38 -49 38 -57v-288zM616 1v263h-80q2 -24 2 -43q0 -68 -29 -93.5t-94 -25.5
q-45 0 -75 16q-39 21 -39 62v491q0 29 18.5 52t47.5 23q7 0 14 -1v75h-309v-75q8 2 15 2q31 0 50 -35q16 -28 16 -58v-498q0 -29 -15 -53q-18 -30 -48 -30q-9 0 -18 3v-75h544zM361 770q-8 3 -16 3q-34 0 -55 -49q-18 -41 -15 -74l4 -227q-9 10 -24 10q-26 0 -26 -10
q0 -6 20.5 -32t20.5 -32l-21.5 -88.5t-21.5 -120.5q0 36 -21.5 123t-21.5 86q0 6 16 27q20 26 24 35q-5 12 -25 12q-13 0 -25 -10v267q-1 29 -24 56q-26 30 -57 24v29h268v-29zM270 517q-38 72 -43 171q0 -35 -11 -82q-12 -54 -32 -89q24 -26 43 -89q3 40 43 89z" />
    <glyph glyph-name="M" unicode="M" horiz-adv-x="945" 
d="M922 -132h-457l-34 45q-4 -11 -4 -45h-303l-78 108v120q34 -1 57.5 14t23.5 46v509q0 22 -21 41q-24 22 -59 18v117h322q12 0 57 -57q30 -38 45 -60q15 44 24 117h334l93 -124v-105q-23 4 -50 -11q-31 -17 -31 -42v-486q0 -10 81 -105v-100zM805 1v75q-28 -4 -54.5 12.5
t-26.5 40.5v557q0 31 31 48q27 14 50 11v72h-289l-75 -394l-80 397h-289v-75q6 1 11 1q31 0 50.5 -27.5t19.5 -59.5v-503q0 -29 -15 -53q-18 -30 -48 -30q-9 0 -18 3v-75h233v75q-27 5 -49 33q-20 25 -22 47l3 481l126 -636h85l125 636l3 -466q2 -28 -14 -60
q-17 -38 -43 -38q-7 0 -13 3v-75h299zM779 770q-43 4 -65 -35q-16 -27 -16 -54v-252q-2 0 -9.5 3t-13.5 3q-11 0 -20 -10q2 -12 16 -35.5t22 -29.5q-37 -69 -43 -192q-6 30 -27 115q-16 66 -16 76q0 6 14 27q17 27 21 35q-4 12 -23 12q-7 0 -13.5 -2t-8.5 -2v225
q-1 11 -14 24q-35 -18 -51 -107l-24 -148q-10 10 -19 10q-7 0 -12.5 -2t-6.5 -2l71 371h238v-30zM413 349l-4 -77t-4 -114q-2 26 -35.5 113t-33.5 88q0 7 12 26t14 26v14q-14 8 -31 8q-9 0 -29 -10l-21 124q-16 92 -45 131q-7 1 -14.5 -4.5t-8.5 -12.5v-238q-11 10 -19 10
t-20 -10v267q-1 25 -22 52q-26 32 -59 28v30h242l77 -371q-20 5 -45 -5q2 -18 24 -38t22 -37zM688 517l-19 64.5t-19 91.5q-4 -16 -25 -87q-18 -58 -18 -69q0 -4 16 -31q18 -31 24 -58q4 15 23 51q18 33 18 38zM382 517q0 3 -37 74t-42 97q0 -36 -3.5 -90t-3.5 -81
q0 -7 29 -39q35 -39 40 -47q0 14 8.5 48.5t8.5 37.5z" />
    <glyph glyph-name="N" unicode="N" horiz-adv-x="836" 
d="M815 612q-7 1 -13 1q-32 0 -50 -22.5t-18 -47.5v-675h-202q-55 60 -88 125q-19 38 -44 112t-46 114q-2 -2 -2 -129q6 -10 44 -57q32 -40 32 -45v-120h-304l-78 108v120q34 -1 57.5 14t23.5 46v509q0 22 -21 41q-24 22 -59 18v117h317q8 0 28 -20l33 -36q3 8 4 56h293
l93 -124v-105zM697 745v75h-242v-75q10 5 20 5q27 0 46 -41q14 -31 15 -55v-302l-180 468h-284v-75q6 1 11 1q31 0 50.5 -27.5t19.5 -59.5v-503q0 -29 -15 -53q-18 -30 -48 -30q-9 0 -18 3v-75h233v75q-69 9 -72 69v492l237 -636h146v685q1 29 33 47q29 16 48 12zM677 770
q-6 2 -11 2q-29 0 -52 -29.5t-23 -61.5v-253q-17 9 -35 1v251q0 26 -18 57q-22 35 -50 35q-6 0 -13 -2v29h202v-29zM498 166q-14 31 -64 116q-47 79 -47 80q0 6 9.5 27.5t11.5 30.5q-20 13 -41 13q-9 0 -29 -10l-51 154q-33 92 -56 101q-2 0 -18 -14v-241q-11 10 -19 10
t-20 -10v267q-1 25 -22 52q-26 32 -59 28v30h242l143 -376q-12 10 -36 10q-20 0 -29 -8q48 -42 62 -90q7 -25 9 -84q1 -54 14 -86zM413 507q0 7 -49 82q-52 80 -57 94v-17q-1 -7 7 -34q9 -31 10 -44q-1 -31 4 -72q10 -16 39.5 -44.5t38.5 -43.5q0 15 3.5 45.5t3.5 33.5z" />
    <glyph glyph-name="O" unicode="O" horiz-adv-x="767" 
d="M754 347q0 -214 -40 -315q-70 -175 -273 -175q-234 0 -317 207q-48 117 -48 336q0 190 36 281q65 170 260 170q382 0 382 -504zM637 415q0 170 -30 252q-60 159 -237 159q-182 0 -240 -165q-28 -80 -28 -258t27 -254q56 -159 235 -159q180 0 241 165q32 86 32 260z
M616 423q-18 10 -30 10q-19 0 -36 -8l25 -38q16 -25 16 -33q0 -13 -59 -206q5 18 5 44q0 40 -13.5 103t-13.5 64q0 5 14 27q17 27 21 35q-5 12 -33 12q-16 0 -27 -10v226q-1 43 -36 79.5t-79 36.5q-105 0 -120 -136l4 -206q-18 10 -30 10q-35 0 -35 -10q0 -6 20 -31.5
t20 -32.5q0 -3 -16.5 -46t-16.5 -87q0 -37 11 -78q-59 168 -59 206q0 7 14 30l22 37q-6 12 -34 12q-16 0 -27 -10v140q0 99 77 170q74 67 167 67t161 -60.5t84 -160.5zM464 221q0 -52 -23 -94q-28 -51 -74 -51q-41 0 -69 42q-23 35 -23 69v467q0 36 32 62q29 23 60 23
q50 0 77 -42q20 -32 20 -72v-404zM591 520q0 9 -22.5 64t-41.5 94q0 -39 -8.5 -96.5t-8.5 -59.5q0 -5 18 -41.5t20 -49.5q4 13 25 50q18 32 18 39zM438 201v409q0 17 -29 32q-1 -5 -10 -24q-7 -14 -7 -20v-416q0 -21 24 -44q22 45 22 63zM229 517q0 4 -10 29.5t-10 70.5
q0 5 1.5 30.5t1.5 35.5q-64 -129 -64 -158q0 -5 18 -43t20 -54q3 23 23 54.5t20 34.5z" />
    <glyph glyph-name="P" unicode="P" horiz-adv-x="794" 
d="M663 579q0 -24 -18 -78q-23 -73 -56 -73q-5 0 -25.5 -2.5t-30.5 -2.5q-6 0 -19 5t-20 5q-12 0 -20 -5t-13 -5q-6 0 -22.5 5t-23.5 5t-18 -5t-17 -5t-20 5t-21 5t-18 -5t-18 -5q-5 0 -18 5t-20 5q-14 0 -33 -8q3 -9 19 -37q14 -24 14 -31q0 -2 -21 -93q-21 -86 -17 -111
q2 28 -20.5 119t-22.5 90q0 19 81 155q-17 25 -27 76l-16 85q-38 -160 -38 -158q0 -6 13 -31q17 -31 21 -43v-18q-7 6 -19 6q-14 0 -25 -11v267q-1 26 -22 53q-25 31 -59 27v34h214q168 -1 193 -12q100 -26 137 -92q26 -44 26 -121zM551 804q-35 18 -70 16h-409v-72
q32 -2 56 -26q25 -27 25 -66v-496q0 -82 -82 -88v-70h312v70q-52 0 -73 35q-14 25 -14 69v186h185q85 0 148 70q59 67 59 149q0 58 -24 116q-31 74 -88 98zM805 482q0 -96 -62 -175q-70 -87 -175 -87h-150v-147q0 -5 40.5 -52.5t40.5 -53.5v-99h-375l-78 108v120l51 12
q30 12 30 48v509q0 29 -27 44q-23 13 -53 10v122h424q12 0 64 -16q58 -18 82 -33q86 -53 139 -144q49 -85 49 -166zM632 516q2 27 -16 77l-28 75q7 -103 -52 -234zM545 591q0 74 -35.5 103.5t-114.5 29.5q-120 0 -119 -65v-195h180q41 0 68 49q21 39 21 78zM520 591
q0 -32 -16 -64q-23 -43 -64 -42h-144v144q0 49 29 64q19 10 70 10q70 0 96 -21q29 -24 29 -91zM489 537v28q-13 6 -33 6q-17 0 -38 -17v-54h18q42 20 53 37z" />
    <glyph glyph-name="Q" unicode="Q" horiz-adv-x="910" 
d="M892 5q0 -73 -57 -121q-51 -42 -111 -42q-51 0 -93.5 23t-44.5 23q5 0 -36 -15.5t-104 -15.5q-223 0 -314 222q-56 136 -56 339q0 172 41 268q69 165 255 165q133 0 254 -103q128 -109 128 -250v-255q138 -101 138 -238zM775 117q0 32 -10 59q-12 36 -35 42q2 -7 2 -16
q0 -25 -14 -47t-32 -22q-61 0 -61 54q0 16 6 44.5t6 35.5v302q0 97 -92 179q-88 78 -178 78q-265 0 -265 -408q0 -179 30 -264q59 -164 235 -164q40 0 85 12q55 14 75 39q51 -72 120 -72q61 0 96 46q32 41 32 102zM463 291q-30 45 -104 45q-46 0 -83 -30v333q-1 38 25 69
t66 31q50 0 77 -42q20 -32 19 -72v-334zM611 423q-10 11 -27 11q-15 0 -34 -9q15 -31 41 -63l-59 -214q3 53 -4 115q-8 74 -23 102q22 20 40 55q-9 15 -60 14v210q-1 51 -35 86t-83 35q-52 0 -87 -42q-30 -37 -31 -83v-211q-14 6 -27 6q-17 0 -31 -10q13 -35 38 -60
q-32 -81 -32 -147q0 -37 10 -70q-20 53 -42 126.5t-22 84.5q0 6 16 29q20 28 25 37q-21 9 -33 9q-15 0 -28 -11v145q0 92 82 165q78 67 162 67q83 0 162 -67q82 -71 82 -154v-156zM464 155q0 -38 -38 -61q-29 -18 -59 -18q-39 0 -65.5 22.5t-26.5 62.5q0 84 84 84
q33 0 66 -22q39 -26 39 -68zM591 520q0 23 -32 92q-30 63 -38 71q3 -15 3 -34q0 -32 -7 -78t-7 -49q0 -5 17.5 -41t20.5 -53q3 27 23 58.5t20 33.5zM438 342v268q1 17 -28 32q-17 -34 -17 -39v-240q13 -5 45 -21zM229 517q-20 43 -20 100q0 53 4 66q-70 -124 -70 -161
q0 -6 18 -40q20 -39 25 -54q2 56 43 89zM438 155q0 6 -11.5 23t-21.5 21q-13 -13 -13 -41q0 -5 5 -19q6 -20 13 -27q10 5 19 19.5t9 23.5z" />
    <glyph glyph-name="R" unicode="R" horiz-adv-x="910" 
d="M887 27q0 -68 -46 -114t-112 -46q-125 0 -193 145q-37 81 -61 233h-57v-156q0 -7 33 -44q48 -54 58 -67v-110h-385l-78 108v120l51 12q30 12 30 48v509q0 47 -80 60v116h429q135 0 231 -124q88 -112 88 -235q0 -115 -92 -173q1 0 86 -5q98 -107 98 -122v-155zM780 145
v135h-71q0 -34 -1 -67q-3 -44 -18 -60h-14q-17 21 -21 71q-7 71 -13 92q-14 57 -56 99q92 57 92 186q0 91 -52 152q-57 67 -155 67h-399v-75q7 1 14 1q32 0 51 -33q16 -27 16 -59v-493q0 -86 -81 -85v-75h315v75q-5 -1 -11 -1q-25 0 -50 20.5t-26 44.5v222h125q59 0 77 -96
l31 -180q31 -96 122 -96q59 0 94 52q31 45 31 103zM658 601q0 -35 -21 -92q-28 -81 -74 -81q-4 0 -22 4q-14 3 -17 0l55 39q48 38 48 62q0 31 -33 130q-6 -75 -23.5 -122t-60.5 -110q51 -32 70 -78q14 -33 14 -87v-28q-1 -18 -1 -27q0 -35 5 -58q-19 132 -104 211
q16 23 16 46q0 18 -9 22q-4 1 -22 1q-198 0 -255 -9q3 -6 24 -35q17 -23 17 -30q0 2 -21 -75t-21 -110q0 -12 3 -19q-42 210 -42 204q0 6 14 27q17 27 21 35q-5 11 -16 12q-3 1 -29 1v246q-1 26 -19 57q-21 35 -49 35q-7 0 -13 -2v30h357q208 0 208 -199zM545 591
q0 80 -42 111q-35 27 -116 27q-53 0 -69 -5q-43 -13 -42 -59v-206h164q49 0 80 47q25 40 25 85zM265 520q0 -1 -21.5 59.5t-21.5 98.5q1 -30 -18.5 -94.5t-19.5 -66.5q0 -6 17 -39q18 -36 21 -47q5 14 25 52q18 34 18 37zM525 589q0 -28 -17 -63q-23 -47 -58 -47h-149v191
q0 26 37 32q8 1 52 1q67 0 95 -18q40 -26 40 -96zM494 542v17q-12 12 -35 12q-20 0 -41 -17v-49h38q9 0 23.5 14t14.5 23z" />
    <glyph glyph-name="S" unicode="S" horiz-adv-x="763" 
d="M739 138q0 -112 -67 -193q-74 -88 -190 -88q-51 0 -91 15q-21 7 -54 27q-25 14 -39 14q-26 0 -39 -45h-115l-87 108v329h115q86 -193 190 -193q23 0 44.5 13t21.5 36q0 22 -94 71q-118 62 -174 122q-94 100 -94 245q0 122 83 190q75 62 193 62q64 0 102.5 -12.5
t42.5 -12.5l37 10t42 10q32 0 49 -2q93 -118 93 -127v-273h-85q-1 2 -56 50q-38 34 -56 58l-21 63q-24 53 -72 53q-66 0 -66 -67q0 -45 100 -89q135 -58 187 -107q100 -95 100 -267zM622 242q0 149 -101 214q-17 11 -186 72q-101 35 -101 112q0 48 26 78.5t79 30.5
q65 0 121.5 -51t70.5 -121h60v243h-64q-20 -20 -38 -20q-6 0 -81 15.5t-82 15.5q-101 0 -167.5 -63.5t-66.5 -168.5q0 -141 98 -209q9 -6 181 -82q98 -42 98 -119q0 -41 -30 -71.5t-75 -30.5q-72 0 -129 44q-64 51 -88 149h-65v-279h65q15 26 22 34q11 11 27 11q26 0 79 -28
t115 -28q111 0 175 78q57 70 57 174zM570 602h-24q-25 84 -85 128q-53 40 -122 40q-60 0 -95 -34t-35 -91q0 -60 53 -100q35 -27 120 -59q101 -39 133 -56q-7 0 -23.5 1.5t-22.5 1.5t-19 -5t-19 -5t-21 5t-23 5q-5 0 -23 -5t-25 -5q-6 0 -5 5t-5 5q-8 0 -8 -1q-25 16 -79 63
q-8 8 -14 29q-7 26 -10 33q-28 55 -36 79q-5 14 -12 52q-9 -22 -19 -72q-8 -44 -8 -58q0 -45 74 -87q59 -33 89 -35q-8 0 -28.5 -6.5t-25.5 -6.5t-17 5t-18 5q-16 0 -26 -10q-52 50 -66 97q-8 24 -8 76q0 103 58 157q55 52 156 52q46 0 101 -12.5t60 -12.5q32 0 45 20h33
v-198zM551 260q0 -28 -19 -112q0 87 -74 175q-52 64 -111 99h17q187 2 187 -162z" />
    <glyph glyph-name="T" unicode="T" horiz-adv-x="778" 
d="M764 362h-120l-80 102l-3 -379q9 -16 48 -68q33 -43 33 -50v-99h-365q-88 98 -88 110v118q26 6 53 13q33 14 34 47v202q-30 1 -90 5q-4 0 -62 53.5t-57 65.5v359h604l58 -73q35 -44 35 -51v-355zM647 495v325h-555v-325h76v135q0 24 19 57q24 42 55 42q26 0 44 -30
q15 -26 15 -50v-503q0 -33 -22.5 -52t-50.5 -19q-7 0 -13 1v-75h309v75q-34 -5 -57.5 15.5t-23.5 42.5v532q0 16 16.5 39.5t34.5 23.5q79 0 79 -182q0 -57 -1 -52h75zM626 516h-29q0 91 -7 125q-21 108 -96 108q-37 0 -59 -34q-17 -28 -17 -59v-227q-46 8 -46 -6
q0 -6 18 -33t18 -33q0 -1 -20 -84.5t-18 -104.5q-7 34 -27 118q-17 67 -17 73q0 5 17 29q20 28 24 37q-15 8 -25 8q-14 0 -25 -10v247q-1 31 -20 55t-52 24q-54 0 -80 -55q-19 -39 -22 -107q-1 -36 -1 -71h-29v283h513v-283zM408 517l-19 67t-19 94q-5 -21 -27 -95
q-17 -59 -17 -66q0 -5 16 -31q19 -32 28 -58q0 17 19 51.5t19 37.5z" />
    <glyph glyph-name="U" unicode="U" horiz-adv-x="838" 
d="M820 612q-33 4 -59.5 -15.5t-26.5 -47.5v-445q0 -115 -83 -184q-75 -63 -185 -63q-160 0 -256 134q-83 116 -83 267v407q0 23 -26.5 39t-59.5 21v116h348q11 0 32 -20q3 3 3 20h298l98 -129v-100zM509 231v385h-42q-57 1 -57 -151q0 -23 1.5 -52t1.5 -31q0 2 -1.5 -27.5
t-1.5 -54.5q0 -167 54 -167q18 0 33 42q13 35 12 56zM697 745v75h-248v-75q8 1 15 1q31 0 51 -24.5t20 -51.5v-443q0 -50 -26 -94q-33 -57 -94 -57q-66 0 -97 63q-22 45 -22 113v419q0 29 18.5 52t47.5 23q7 0 14 -1v75h-309v-75q7 1 14 1q37 0 57 -35q15 -26 15 -57v-416
q0 -107 62 -175q68 -73 188 -73q107 0 165 77q49 66 49 164v445q0 24 16 45q20 25 51 25q7 0 13 -1zM677 771q-86 -18 -86 -115v-227q-25 6 -35 -6v262q0 25 -24 52q-27 32 -62 33v29h207v-28zM356 770q-33 -2 -57 -22t-25 -52v-273q-11 10 -19 10q-26 0 -26 -13
q0 -6 18 -30t18 -31l-15 -81q-14 -77 -13 -115l-53 194q18 27 35 64q-5 12 -25 12q-8 0 -20 -10v267q0 39 -32 62q-27 21 -55 18v29h269v-29zM265 520l-19.5 60t-18.5 88q-43 -141 -43 -148q0 -2 18.5 -37t18.5 -55q6 16 26 53q18 34 18 39z" />
    <glyph glyph-name="V" unicode="V" horiz-adv-x="824" 
d="M820 613l-50 -8q-31 -9 -40 -37q-65 -200 -196 -700h-181q-5 8 -41 48q-29 32 -35.5 55.5t-61 313.5t-89.5 410q-5 17 -35 23q-22 3 -44 7v115h344q12 -20 34 -60q7 26 -1 60h304l92 -123v-104zM489 606h-39q-22 -32 -22 -45q0 -7 10 -46q11 -43 13 -56q14 50 38 147z
M703 750v70h-249v-70q77 -7 77 -50q0 -5 -1 -11l-125 -485l-94 482q-3 35 20 49q12 9 51 15v70h-310v-70l32 -6q26 -6 32 -19q36 -77 86 -341q63 -337 75 -383h135q4 13 104 377q62 227 102 342q7 19 32 24zM677 771q-46 -19 -77 -85q-20 -44 -41 -134q-24 -99 -36 -129
q-10 10 -16 10q-7 0 -11.5 -2t-5.5 -2q17 56 41.5 154t24.5 108q0 74 -81 79v29h202v-28zM361 770q-42 -3 -59 -22t-17 -60q0 -11 16 -95q16 -91 30 -147v-17q-27 0 -38 -5q1 -9 16 -31t26 -27v-203q-10 31 -48 116q-32 74 -32 80q0 7 11 26q16 28 19 35q-12 13 -28 13
q-5 0 -15 -10q-16 38 -30 131t-31 132q-28 64 -89 85v28h269v-29zM306 515q0 4 -28 68q-32 75 -41 100q-1 -86 -4.5 -127t-3.5 -31q0 -7 20 -39q27 -44 34 -58q3 12 13 49q10 32 10 38z" />
    <glyph glyph-name="W" unicode="W" horiz-adv-x="1037" 
d="M1029 613q-26 -4 -52 -7q-35 -7 -43 -33q-28 -91 -65 -304q-62 -362 -70 -401h-145q-84 99 -101 198q-8 -60 -29 -198h-150l-52 56q-29 34 -35 57q-30 108 -79 355q-46 232 -82 354q-7 21 -31 26t-48 9v115h349q12 -15 34 -45q9 26 9 45h156q14 -25 39 -50q4 12 4 51h298
l93 -124v-104zM912 745v75h-249v-75q27 2 47 -6q27 -10 27 -36q0 -8 -3 -17l-59 -355l-105 489h-105l-75 -489l-84 376q-2 5 -2 10q0 17 26 24l36 4v75h-294v-75q59 2 69 -30q55 -182 171 -714h105l80 488l100 -488h100q25 114 76 417q31 184 74 307q5 13 29 18q20 4 36 2z
M891 771q-69 -21 -92 -75q-14 -32 -20 -120q-7 -94 -26 -147q-29 0 -38 -5q44 253 44 269q0 41 -10 53q-14 17 -65 24v29h207v-28zM632 344q0 -1 -2 -19q-2 -21 -3 -53q-2 -47 -2 -119q-11 35 -48 123q-32 78 -32 83q0 7 8 20l18 32v13q-14 8 -40 -1q-8 67 -35 102
q-19 -7 -26 -41q-3 -25 -7 -50q-13 -3 -34 -11l56 377h70l71 -376l-37 4l-8 -8l34 -40t17 -36zM347 349l-6.5 -77t-6.5 -114q-10 34 -45 121q-29 74 -29 80q0 14 26 52v13q-20 7 -45 5q-13 32 -28 125q-15 90 -33 132q-29 65 -88 85v28h254v-29q-66 -3 -66 -54l61 -292h-46
q5 -7 31 -41q21 -26 21 -34zM596 517q0 7 -27 64q-35 72 -43 92v-145q-1 -8 21 -46q26 -45 29 -54q2 19 11 52.5t9 36.5zM311 515q0 7 -30 67q-37 75 -45 96v-155q-1 -7 21 -42q29 -47 31 -53q2 10 13 47q10 34 10 40z" />
    <glyph glyph-name="X" unicode="X" horiz-adv-x="828" 
d="M825 -132h-645l-113 108v120l52 12q31 8 53 44q33 54 75 132q44 82 44 91q0 11 -62 132q-69 133 -116 201q-12 17 -66 17v116h670l93 -124v-104q-8 -2 -58 -6q-33 -3 -49 -17q-28 -23 -85 -126q-52 -94 -52 -102q0 -24 118 -205q115 -174 141 -199v-90zM708 1v75
q-37 -3 -56 17q-11 12 -31 56q-24 51 -47 84q-29 41 -72 121q-38 71 -38 77q0 11 60 120q64 116 109 179q12 17 59 15v75h-258v-75q18 3 40 -5q26 -9 26 -26q0 -9 -90 -184q-94 162 -94 178q0 26 22 30t44 7v75h-310v-75q42 1 63 -22q14 -14 34 -62q24 -55 47 -89
q29 -42 68 -118q37 -71 37 -79q0 -10 -67 -127q-69 -121 -95 -151q-10 -11 -34 -16q-16 -3 -33 -5v-75h249v75q-34 0 -46 14q-3 28 28 85l52 90l47 -81q26 -49 32 -85q-16 -19 -38 -22q-17 -1 -33 -1v-75h325zM672 771q-43 -8 -86 -72q-27 -39 -75.5 -136t-73.5 -135
q-45 4 -60 -2q44 2 85 -98l57 -165q-20 30 -154 201q10 39 10 73q0 72 -47 137l-77 94q24 -95 33 -117q26 -67 83 -121q-1 0 -8.5 2t-13.5 2q-12 0 -21 -11q-44 71 -94 174q-44 92 -62 119q-33 45 -76 55v28h269v-29q-6 1 -12 1q-24 0 -41 -16.5t-17 -35.5q0 -22 51 -117
q46 -85 63 -108q15 17 64 101q56 97 56 124q0 19 -19.5 35t-45.5 16v30h212v-29z" />
    <glyph glyph-name="Y" unicode="Y" horiz-adv-x="807" 
d="M805 623q-146 -40 -193 -161q-26 -69 -26 -222q0 -11 -1 -34v-37q0 -127 82 -201v-100h-375l-78 108v120l51 12q31 12 31 48v223q0 2 -61 113l-94 177q-19 37 -47 46l-47 10v116h655l103 -124v-94zM692 745v75h-258v-75q19 5 42.5 -5t23.5 -29q0 -11 -35 -75t-60 -101
q-89 164 -89 173q0 21 21 29q5 2 45 8v75h-310v-75q41 -2 65 -30q16 -18 40 -70q28 -61 49 -93q28 -42 61.5 -103.5t33.5 -69.5v-233q0 -27 -18 -48q-23 -25 -63 -22v-75h310v75q-34 -5 -60 14.5t-26 49.5v296q0 8 60 110l99 169q18 32 69 30zM672 770q-49 -1 -124 -133
l-117 -214q-10 10 -21 10q-23 0 -23 -10q0 -6 20.5 -31.5t20.5 -32.5q0 -2 -19.5 -100.5t-18.5 -110.5q-5 36 -25 127l-18 84q0 4 15 25t15 31q0 16 -9 18q1 0 -16 0q-18 0 -29 -10q-22 32 -70 130t-75 139q-45 69 -86 79v28h269v-29q-45 -3 -60 -16q-10 -10 -10 -38
q0 -26 49 -113q38 -68 61 -98q21 9 72.5 100t51.5 111q0 44 -71 55v29h218v-30zM381 428v18q-4 12 -7 43q-3 28 -9 40q-16 28 -59 76.5t-55 67.5l41 -123q28 -69 89 -122z" />
    <glyph glyph-name="Z" unicode="Z" horiz-adv-x="768" 
d="M744 680q0 -35 -97 -205l-107 -181q7 -1 16 -1q7 0 22 1.5t22 1.5q19 0 31 -8q30 -18 68 -69q35 -46 35 -58v-293h-569l-98 96q-16 19 -16 74q0 45 80 195l104 186q-18 4 -79 6l-53 62q-31 39 -31 46v308h574l72 -90q26 -34 26 -71zM313 580l-26 6q-20 -18 -20 -46v-51
q20 34 46 91zM621 746v74h-523v-264h80q-6 114 29 144q23 19 109 19q60 0 82 -18q-24 -83 -109 -241l-145 -252q-72 -123 -72 -135v-72h549v263h-80q3 -25 3 -46q0 -79 -52 -103q-28 -13 -110 -13q-17 -2 -31 -2q-66 0 -66 33q0 26 168 320.5t168 292.5zM513 239
q-19 -32 -46 -90l25 -6q19 16 21 46v50zM601 756l-190 -328q-29 10 -54 1q78 67 100 135l26 109q-56 -61 -93 -125q-40 -71 -39 -119q-29 9 -55 0l70 127q57 105 57 132q0 54 -64 54q-10 0 -25 -1.5t-18 -1.5q-95 0 -120 -18q-43 -30 -44 -144h-34v222h483v-43zM362 364
q0 -6 -61 -83q-75 -93 -96 -123q30 60 45 117q13 52 23 68q19 32 77 80q0 -7 6 -29.5t6 -29.5z" />
    <glyph glyph-name="a" unicode="a" horiz-adv-x="679" 
d="M660 -106h-268q-6 16 -23 33q-3 -6 -3 -33h-263l-74 95v88q10 -1 28 5.5t23 18.5q47 109 91 276q74 280 79 296h110q9 0 64 -50.5t64 -73.5q22 -57 52 -199q35 -158 51 -210q32 -101 69 -116v-130zM566 1v59q-13 2 -29.5 13t-21.5 24q-36 91 -77 253l-76 306h-96
q-15 -49 -80 -293q-47 -176 -85 -271q-5 -12 -23.5 -22.5t-27.5 -8.5v-60h219v60q-57 0 -57 74q0 41 19 77h121q19 -68 19 -90q0 -55 -61 -62v-59h256zM435 120q-8 26 -41 98q-31 65 -31 69q0 11 20 42v11q-12 7 -20 7q-7 0 -15 -8l-48 207q-38 -129 -57 -208q-7 9 -21 9
q-3 0 -21 -8l77 301h68l81 -301q-8 8 -19 8q-9 0 -21 -6q30 -6 35 -83q7 -117 13 -138zM330 306h-77l43 159q34 -123 34 -136v-23zM400 414q0 3 -26 50q-29 53 -39 82v-13q-6 -78 5 -120q4 -17 21 -38q23 -27 25 -30q0 11 7 38.5t7 30.5z" />
    <glyph glyph-name="b" unicode="b" horiz-adv-x="671" 
d="M640 75q0 -57 -33 -112q-42 -69 -108 -69h-400l-62 87v96q20 4 41 9q24 10 24 39v411q0 18 -21.5 31.5t-43.5 12.5v93h344q108 0 185 -95q70 -86 70 -185q0 -44 -14 -74.5t-47 -67.5q65 -82 65 -176zM546 194q0 96 -61 147q57 57 57 142q0 71 -41 120q-46 53 -124 53
h-319v-60q8 3 15 3q21 0 36 -27q13 -23 13 -44v-399q0 -28 -14 -47q-17 -24 -50 -21v-61h347q74 0 113 77q28 56 28 117zM526 485q0 -74 -67 -147q-1 5 -13 9h-22l53 39q20 20 20 56q0 59 -22 100l-20 -91q-17 -78 -43 -106q61 -30 74 -53q7 -13 7 -60q0 -42 -23 -112
q4 10 4 25q0 69 -49 137q-2 19 -5 37q-6 28 -37 28q-4 0 -13 -4.5t-13 -4.5t-14.5 4.5t-16.5 4.5q-10 0 -16.5 -4.5t-9.5 -4.5q-5 0 -15.5 4.5t-15.5 4.5q-10 0 -16.5 -4.5t-9.5 -4.5q-5 0 -15.5 4.5t-15.5 4.5q-11 0 -27 -8q1 -8 14 -27.5t13 -24.5l-16 -70t-14 -99
q-2 30 -19 99q-16 66 -16 70q0 5 11 22q14 21 17 28q-3 10 -18 10q-8 0 -18 -8v217q0 20 -21 41.5t-44 18.5v24h286q75 0 120.5 -42t45.5 -113zM420 198q0 -127 -118 -127q-17 0 -36 3q-26 24 -25 47v189h99q41 0 64 -45q16 -33 16 -67zM440 475q0 124 -126 124
q-50 0 -69 -13q-25 -17 -25 -67v-152h132q41 0 67 41q21 33 21 67zM212 418q0 1 -15 48t-15 68q-35 -112 -35 -118q0 -2 13.5 -28t18.5 -45q5 19 19 46t14 29zM396 169q0 31 -19 35h-42v-87q-1 -7 6.5 -13t11.5 -6q43 25 43 71zM420 475q0 -29 -16 -57q-21 -35 -56 -34h-107
v148q-1 17 25 51q24 3 43 3q58 0 84.5 -26t26.5 -85zM396 449q0 28 -29 28q-33 0 -32 -19v-54h21q14 0 27 13.5t13 31.5z" />
    <glyph glyph-name="c" unicode="c" horiz-adv-x="638" 
d="M612 128q0 -107 -69.5 -174.5t-183.5 -67.5q-298 0 -298 450q0 137 31 213q53 132 198 132q24 0 77 -18.5t49 -18.5q14 0 14 15q0 9 -1 18h92q86 -99 86 -104v-328h-137l-45.5 42.5t-31.5 44.5l-10 97q-11 85 -40 85q-14 0 -23 -20q-6 -14 -6 -23v-343q0 -10 11 -22
t20 -12q24 0 38 60q10 47 9 82h137l45 -53q38 -44 38 -55zM514 181v34h-102q2 -62 -20 -103q-27 -51 -82 -51q-48 0 -74 44q-20 35 -20 84v303q0 38 16 65q21 34 60 34q69 0 101 -112q19 -66 19 -128h101v305h-68q2 -24 -4 -30q-3 -2 -15 -2q-6 0 -52.5 18.5t-79.5 18.5
q-137 0 -186 -128q-26 -69 -26 -197q0 -148 26 -217q50 -127 198 -127q79 0 141 51q67 55 67 138zM497 368h-68q1 69 -25 141q-38 103 -112 103q-37 0 -64.5 -27.5t-28.5 -64.5v-167q-10 11 -25 11q-13 0 -23 -7q3 -6 17 -28q11 -17 11 -23q0 -3 -10.5 -51t-10.5 -79
q0 -20 4 -35l-27 74q-17 53 -17 83q0 12 9.5 26l19.5 29q-4 10 -25 10q-16 0 -24 -4v79q0 77 62 139.5t136 62.5q35 0 80 -18.5t58 -18.5t15 2q9 5 17 31h31v-268zM179 418q0 17 -6.5 51.5t-6.5 51.5q0 16 4 29q-52 -103 -52 -128q0 -6 13 -27q16 -27 18 -32q2 5 18 30
q12 20 12 25z" />
    <glyph glyph-name="d" unicode="d" horiz-adv-x="665" 
d="M661 241q0 -91 -52 -200q-69 -147 -183 -147h-327l-62 87v96q25 -3 45 10t20 38v411q0 18 -21.5 31.5t-43.5 12.5v93h340q148 0 228 -184q56 -128 56 -248zM567 330q0 111 -33 195q-50 131 -165 131h-311v-60q8 3 15 3q21 0 36 -27q13 -23 13 -44v-403q0 -62 -64 -69v-56
h282q115 0 179 132q48 97 48 198zM554 339q-13 8 -28 8q-13 0 -24 -7q28 -38 28 -55q0 -27 -33 -86q-25 -47 -51 -81q17 48 21 84q3 15 -5 86q13 13 32 41v11q-12 7 -25 7q-11 0 -19 -8l-12 153q-17 107 -74 107h-108q-28 -24 -31 -44.5t-5 -38.5l3 -177q-7 8 -21 8
q-18 0 -18 -11q0 -5 14 -25t14 -26q0 -1 -17 -74q-17 -69 -14 -89q0 31 -17 97.5t-17 65.5q0 6 13 25q17 24 20 30q-12 7 -23 7q-8 0 -18 -8v217q0 20 -21 41.5t-44 18.5v24h290q164 0 190 -301zM428 343q0 -91 -21 -161q-33 -109 -109 -109q-27 0 -38 6q-19 9 -19 38v427
q0 17 21 39q29 11 53 11q113 0 113 -251zM530 414q0 16 -60 132q4 -14 4 -32q0 -24 -6.5 -59t-6.5 -39q0 -5 16 -31q17 -29 20 -42q33 56 33 71zM408 349q0 128 -35 128q-39 0 -38 -27v-339h19q54 99 54 238zM212 416q0 1 -15.5 56t-14.5 74q-5 -23 -21 -77q-14 -49 -14 -53
q0 -5 14 -31q17 -30 21 -42q1 12 15.5 41t14.5 32z" />
    <glyph glyph-name="e" unicode="e" horiz-adv-x="591" 
d="M558 569v-246h-108q-25 29 -69 90v39q-2 33 -24 33q-23 0 -23 -41q0 -17 48.5 -86.5t45.5 -97.5q43 6 74 -32l56 -78v-256h-459l-62 87v96q65 2 65 48v407q0 18 -17 33q-20 17 -48 15v92h443l42 -52q37 -45 36 -51zM216 414q-27 37 -35 141q-1 -87 -34 -141
q24 -25 35 -76q0 38 34 76zM464 429v178h-17v-159h-28q-3 63 -14 93q-17 46 -64 71h-33q-31 0 -58 -23q-30 -24 -30 -57v-166h107l-4 -28q-66 6 -139 -1q4 -7 18 -25.5t14 -21.5q0 3 -35 -172q-3 22 -20 98q-14 69 -14 74t13 21q16 20 19 26q-3 3 -19 4q-16 0 -19 -3l-2 211
q-4 60 -65 69v21h375v-27h15v44h-406v-60q7 3 13 3q20 0 37 -27q14 -24 14 -44v-399q0 -69 -64 -68v-60h406v235h-64q2 -74 -8 -107q-20 -64 -84 -64q-20 0 -40 12q-28 15 -28 39v194h102v75h-102v160q0 23 25 36q19 10 41 10q56 0 80 -58q19 -44 14 -104h64zM379 156v47
h-43v-96l17 -5q6 7 16 29t10 25z" />
    <glyph glyph-name="f" unicode="f" horiz-adv-x="597" 
d="M587 323h-121q-23 30 -65 90q0 23 -1 47q-4 46 -29 46q-33 0 -33 -53q0 -32 34 -73q61 -73 68 -84v-92h-102v-125q0 -3 33 -45t32 -48v-92h-304l-62 87v96q20 4 41 9q24 10 24 39v407q0 40 -65 48v92h476q74 -98 74 -103v-246zM493 433v223h-435v-60q7 3 13 3
q20 0 37 -27q14 -24 14 -44v-399q0 -69 -64 -68v-60h259v60q-25 -2 -50.5 15.5t-26.5 39.5v194h106v79h-106v152q0 25 26 39q20 11 44 11q51 0 81.5 -38t30.5 -94q0 -13 -1 -26h72zM477 449h-40q1 12 1 24q0 64 -36.5 101.5t-91.5 37.5q-37 0 -62 -20q-28 -21 -28 -55v-170
h106q-2 -16 4 -28q-30 8 -49 8q-5 0 -17 -4.5t-17 -4.5t-16 4.5t-17 4.5q-30 0 -30 -9q0 -5 16 -25t16 -26q0 1 -18.5 -72t-16.5 -93q0 29 -17 97.5t-17 67.5q0 5 14.5 23.5t17.5 25.5q-4 11 -20 11q-10 0 -20 -8v213q0 23 -20 46t-45 18v24h403v-191zM212 418l-15 52.5
t-15 75.5q0 -25 -17.5 -77.5l-17.5 -52.5q0 -4 12 -27q16 -27 23 -46q2 14 16 43t14 32z" />
    <glyph glyph-name="g" unicode="g" horiz-adv-x="658" 
d="M656 111q-20 -1 -39 -1q-30 -3 -30 -18v-198h-60q-18 20 -34 20q-3 0 -47.5 -14t-82.5 -14q-187 0 -263 177q-47 110 -47 273q0 138 31 213q54 132 201 132q80 0 121 -37h11q8 15 8 32h92q86 -98 86 -103v-289l53 -57v-116zM408 319q-23 19 -29 71q-3 42 -7 84
q-7 40 -36 40q-6 0 -16 -10t-10 -17v-354q0 -10 13.5 -22.5t27.5 -12.5q32 0 32 57q0 33 -19 41q-16 4 -33 7v116h77zM558 221v76h-207v-76q53 5 53 -60q0 -39 -20 -66q-23 -34 -70 -34q-39 0 -68.5 35t-29.5 73v355q0 28 23 47.5t48 19.5q60 0 93 -90q26 -67 26 -132
q0 -13 -2 -18h105v305h-68q-5 -26 -10 -31q-1 -1 -13 -1l-47 18.5t-86 18.5q-137 0 -185 -124q-27 -68 -27 -199q0 -146 26 -215q49 -131 199 -131q41 0 78.5 12l37.5 12q13 0 23 -16h56v182q0 40 49 40q9 0 16 -1zM489 372h-69q4 17 -6 70q-12 68 -38 112q-35 58 -89 58
q-38 0 -64.5 -30.5t-27.5 -65.5v-173q-21 6 -44 0q2 -10 13 -33.5t11 -28.5q0 2 -8 -75q-8 -72 -5 -88l-52 168q19 26 33 54q-12 7 -27 7q-19 0 -26 -4v87q0 81 56 144q60 66 144 66q44 0 80 -18.5t52 -18.5q30 0 35 33h32v-264zM175 416q0 1 -6 36.5t-6 60.5q0 19 3 33
q-56 -111 -56 -130q0 -2 16 -28.5t19 -44.5q2 12 16 41t14 32z" />
    <glyph glyph-name="h" unicode="h" horiz-adv-x="711" 
d="M685 -106h-268l-19 20q-3 -2 -3 -20h-296l-62 87v96q20 4 41 9q24 10 24 39v407q0 40 -65 48v92h574l74 -98v-84q-18 2 -40 -10q-25 -15 -25 -37v-384q0 -4 65 -81v-84zM391 404v85h-21q-11 0 -23.5 -13t-11.5 -22v-50h56zM591 596v60h-248v-60q7 2 14 2q23 0 40 -25
q15 -20 15 -37v-152h-176v128q1 30 11 53q16 32 45 32q6 0 13 -1v60h-247v-60q7 3 13 3q20 0 37 -27q14 -24 14 -44v-403q0 -23 -12 -43q-14 -23 -38 -23q-7 0 -14 2v-60h247v60q-8 -2 -15 -2q-27 0 -41 28q-12 24 -13 53v149h176v-172q0 -30 -22 -45.5t-47 -10.5v-60h248
v60q-6 -2 -11 -2q-21 0 -38 22q-16 19 -16 35v421q0 23 15 41.5t38 18.5q6 0 12 -1zM391 116v67h-56v-101h21q11 0 23 10.5t12 23.5zM574 616q-27 -1 -45.5 -17t-19.5 -42v-218q-9 8 -18 8q-18 0 -18 -11q0 -5 14.5 -25t14.5 -26q0 -4 -16 -64q-16 -63 -19 -91q1 19 -15 86
l-16 67q0 5 12 24q15 25 17 29q-12 11 -33 11q-16 0 -53 -4.5t-55 -4.5q-33 0 -86 6q-13 1 -27 3q-16 1 -26 -7q1 -9 14 -30.5t13 -26.5l-16.5 -67t-14.5 -81q-5 40 -20 96q-14 52 -14 54q0 4 13 24q16 24 20 31q-12 7 -23 7q-6 0 -11.5 -2t-6.5 -2v209q0 23 -20 46t-45 18
v24h211v-24q-27 -3 -45 -20q-20 -20 -20 -51v-178h208v181q0 32 -22 52t-46 16v24h214v-24zM502 416q0 1 -17 52.5t-18 73.5q1 -23 -15 -74.5l-16 -51.5q0 -2 14 -28t19 -45q5 19 19 47q14 24 14 26zM212 418q0 1 -15.5 52t-14.5 72q-5 -27 -21 -77q-14 -44 -14 -49
q0 -2 35 -73q-2 17 14 45t16 30z" />
    <glyph glyph-name="i" unicode="i" horiz-adv-x="426" 
d="M399 -106h-300l-62 87v96q65 -3 65 48v407q0 18 -17 33q-20 17 -48 15v92h288l74 -98v-84q-18 3 -40 -9q-25 -14 -25 -34v-388q0 -4 32.5 -42t32.5 -43v-80zM305 1v60q-8 -2 -15 -2q-53 0 -53 81v376q0 27 11 53q15 31 39 31q8 0 18 -4v60h-247v-60q28 5 46 -17.5
t18 -50.5v-403q0 -23 -12 -43q-14 -23 -38 -23q-7 0 -14 2v-60h247zM285 616q-24 -3 -45.5 -28t-19.5 -48l3 -201q-7 8 -21 8q-18 0 -18 -11q0 -5 14 -25t14 -26q0 -1 -15.5 -69t-15.5 -96q0 29 -17 98t-17 67q0 6 11 21q9 11 17 23v11q-6 7 -16 7t-20 -8v213q0 20 -17 41
q-21 26 -48 23v24h211v-24zM216 414q-28 42 -34 128q-9 -46 -23 -88q-12 -34 -12 -38q0 -1 35 -73q3 46 34 71z" />
    <glyph glyph-name="j" unicode="j" horiz-adv-x="593" 
d="M570 490q-5 2 -11 2q-19 0 -36 -20t-17 -37v-352q0 -70 -54 -131q-58 -66 -136 -66q-123 0 -204 90q-75 85 -75 199q0 127 91 127q35 0 66 -29q21 -18 66 -78q5 -1 17 12v325q0 40 -64 48v96h283l74 -102v-84zM481 600v56h-248v-56q65 -2 65 -72v-309q0 -49 -15 -87
q-20 -55 -65 -55q-26 0 -45 14q-22 15 -22 39q0 21 22.5 45.5t22.5 54.5q0 23 -21.5 37t-41.5 14q-76 0 -76 -106q0 -80 43 -129q47 -54 137 -54q80 0 127.5 49.5t47.5 131.5v364q0 56 69 63zM460 612q-7 2 -13 2q-24 0 -39 -28q-12 -23 -12 -50l2 -197q-7 8 -21 8
q-18 0 -18 -11q0 -6 11 -24q16 -25 17 -28l-47 -166q3 40 -7 103q-11 67 -11 64q0 6 12 24q15 24 17 28q-4 10 -19 10q-8 0 -17 -8v205q-1 16 -14 41q-17 30 -38 30q-7 0 -13 -3v24h210v-24zM387 414l-15 51.5t-15 72.5q-3 -12 -20 -69q-15 -47 -15 -55q0 -5 14 -32
q16 -30 19 -39q3 13 18 42q14 26 14 29z" />
    <glyph glyph-name="k" unicode="k" horiz-adv-x="715" 
d="M697 -106h-280l-19 20q-3 -2 -3 -20h-296l-62 87v96q65 -3 65 48v411q0 18 -21.5 31.5t-43.5 12.5v92h574l78 -98v-80q-24 -3 -47 -7q-29 -5 -47 -19q-22 -16 -72 -78.5t-50 -69.5q0 -12 101.5 -157t122.5 -160v-109zM607 1v60q-36 0 -56.5 12.5t-102.5 145.5
q-81 130 -81 142t84.5 116.5t100.5 113.5t39 5v60h-248v-56q13 -2 26 -5q22 -6 22 -16q0 -7 -50 -73q-57 -75 -102 -119q-2 2 -2 121q2 88 68 92v56h-247v-56q5 1 10 1q25 0 41 -28q13 -23 13 -45v-403q0 -23 -12 -43q-14 -23 -38 -23q-7 0 -14 2v-60h247v60q-11 -6 -20 -6
q-48 0 -48 114q0 30 2 34l44 54q96 -144 96 -171q0 -28 -23 -28q-6 0 -13 3v-60h264zM574 616q-36 4 -117 -100l-132 -178q-15 9 -23 9q-6 0 -12.5 -1.5t-8.5 -1.5q61 39 94 92q19 29 42 90q-35 -44 -96 -98q-25 -22 -44 -87q32 -19 88 -48l30 -85q20 -53 45 -89l-102 130
q-77 98 -81 98q-5 0 -11.5 -4.5t-11.5 -4.5t-13 4.5t-13 4.5q-24 0 -24 -11q0 -5 14 -25t14 -26q0 -1 -15 -68t-15 -95q1 23 -17 95t-18 70q0 4 13 23q16 23 20 30q-12 7 -21 7q-6 0 -12.5 -2t-7.5 -2v209q0 21 -16 42q-20 26 -49 22v24h211v-24q-27 4 -46 -19.5t-19 -47.5
v-183q3 -3 8 -3q26 0 107 105q77 100 77 115q0 21 -18 28q-3 2 -30 5v24h210v-24zM212 418l-15.5 53t-14.5 75q-6 -34 -21 -83q-14 -44 -14 -47q0 4 35 -73q-2 17 14 45t16 30z" />
    <glyph glyph-name="l" unicode="l" horiz-adv-x="595" 
d="M587 -106h-488l-62 87v96q65 -3 65 48v407q0 40 -65 48v92h288l74 -98v-84q-4 1 -9 1q-19 0 -37.5 -16.5t-18.5 -35.5v-310q11 -19 35 -19q41 0 41 87q0 12 -2 35h101q78 -104 78 -107v-231zM493 1v210h-64q2 -19 2 -34q0 -54 -23.5 -74.5t-75.5 -20.5q-36 0 -60 13
q-31 16 -31 49v393q0 23 15 41.5t38 18.5q5 0 11 -1v60h-247v-60q6 1 12 1q24 0 40 -27q12 -23 12 -47v-398q0 -23 -12 -43q-14 -23 -38 -23q-7 0 -14 2v-60h435zM289 616q-7 2 -13 2q-27 0 -44 -39q-14 -33 -12 -59l3 -181q-7 8 -19 8q-20 0 -20 -9q0 -5 16 -25.5t16 -25.5
l-17.5 -71t-17.5 -96q0 29 -17 98.5t-17 68.5q0 5 14.5 23.5t17.5 25.5q-3 11 -20 11q-10 0 -20 -8v213q0 23 -20 46t-45 18v24h215v-24zM216 414q-31 57 -35 136q2 -76 -34 -136q20 -21 35 -71q2 31 34 71z" />
    <glyph glyph-name="m" unicode="m" horiz-adv-x="764" 
d="M738 -106h-366q-10 13 -27 37q-3 -9 -3 -37h-243l-62 87v96q65 -3 65 48v407q0 18 -17 33q-20 17 -48 15v93h258q19 0 82 -94q12 36 19 93h268l74 -98v-84q-19 3 -42 -10t-23 -33v-388q0 -8 65 -85v-80zM644 1v60q-22 -3 -43.5 10t-21.5 32v446q0 25 25 38q21 12 40 9v58
h-231l-60 -316l-64 318h-231v-60q28 5 46 -17.5t18 -50.5v-403q0 -23 -12 -43q-14 -23 -38 -23q-7 0 -14 2v-60h186v59q-22 5 -38.5 26t-17.5 38l2 386l100 -510h68l101 510l2 -373q1 -22 -11 -48q-14 -30 -35 -30q-5 0 -11 2v-60h240zM623 616q-34 3 -52 -28
q-12 -21 -13 -43v-202q-1 0 -7.5 2.5t-10.5 2.5q-9 0 -16 -8q1 -9 12.5 -28t18.5 -24q-30 -55 -35 -153q-5 23 -22 92q-13 52 -13 60q0 5 11 22q15 21 18 28q-4 10 -19 10q-5 0 -10.5 -2t-7.5 -2v180q0 9 -10 19q-28 -14 -41 -85l-20 -118q-8 8 -15 8q-5 0 -9.5 -2t-5.5 -2
l57 297h190v-24zM330 279l-3 -61.5t-3 -91.5q-2 21 -28.5 91l-26.5 70q0 6 9.5 21.5t11.5 20.5v11q-11 7 -25 7q-7 0 -23 -8q-9 49 -17 99q-13 73 -36 105q-17 2 -18 -14v-190q-10 8 -16 8t-16 -8v213q0 20 -17 41q-21 26 -48 23v24h194l62 -297q-16 4 -37 -4
q3 -15 20 -30.5t17 -29.5zM551 414q0 -1 -15.5 51t-15.5 73q-3 -12 -20 -69q-15 -47 -15 -55q0 -3 13 -25q15 -25 20 -46q3 12 18 39.5t15 31.5zM306 414q0 2 -30 59t-34 77q0 -28 -2.5 -71.5t-2.5 -64.5q0 -6 23 -32q28 -31 32 -37q0 11 7 38.5t7 30.5z" />
    <glyph glyph-name="n" unicode="n" horiz-adv-x="674" 
d="M652 490q-30 5 -49 -16q-16 -17 -16 -39v-541h-162q-44 48 -70 100q-15 30 -35 91q-20 58 -37 90q-2 -1 -2 -103q5 -8 36 -46q25 -31 25 -36v-96h-243l-62 87v96q65 -3 65 48v407q0 18 -17 33q-20 17 -48 15v93h254q4 0 49 -45q2 6 3 44h235l74 -98v-84zM558 596v60h-194
v-60q8 4 16 4q21 0 37 -33q11 -25 12 -44v-242l-144 375h-227v-60q28 5 46 -17.5t18 -50.5v-403q0 -23 -12 -43q-14 -23 -38 -23q-7 0 -14 2v-60h186v59q-56 8 -57 56v394l189 -510h117v549q0 23 26 37q23 14 39 10zM542 616q-5 1 -10 1q-23 0 -41 -23.5t-18 -48.5v-202
q-14 7 -28 0v201q0 21 -15 45q-17 29 -40 29q-5 0 -10 -2v24h162v-24zM398 133q-11 24 -51 93q-37 63 -37 64q0 4 7.5 21.5t8.5 24.5q-15 11 -32 11q-8 0 -24 -8l-40 122q-27 74 -45 81q-2 0 -14 -11v-192q-10 8 -16 8t-16 -8v213q0 20 -17 41q-21 26 -48 23v24h194
l114 -301q-8 7 -26 8q-17 1 -26 -7q39 -33 50 -71q6 -20 7 -68q1 -43 11 -68zM330 406q0 5 -39 65q-41 64 -45 75v-13q-1 -5 5 -27q7 -25 8 -35q-1 -25 3 -58q24 -24 63 -70q0 11 2.5 35.5t2.5 27.5z" />
    <glyph glyph-name="o" unicode="o" horiz-adv-x="618" 
d="M604 277q0 -170 -33 -251q-56 -140 -218 -140q-187 0 -254 166q-38 93 -38 268q0 152 28 225q53 136 209 136q306 0 306 -404zM510 332q0 136 -25 201q-47 128 -189 128q-146 0 -192 -132q-22 -64 -22 -207q0 -142 21 -203q45 -127 189 -127t192 132q26 69 26 208z
M492 339q-14 8 -23 8q-15 0 -29 -7q3 -5 20 -31q13 -20 13 -26q0 -10 -47 -165q4 15 4 36q0 32 -11 82t-11 51q0 4 12.5 23.5t15.5 25.5q-4 11 -26 11q-13 0 -22 -8v180q0 35 -28 64t-64 29q-84 0 -96 -109l3 -164q-14 8 -24 8q-28 0 -28 -9q0 -5 16.5 -25t16.5 -26
q0 -2 -13.5 -36.5t-13.5 -69.5q0 -30 9 -63q-48 135 -48 165q0 6 11 24q16 26 18 29q-5 11 -27 11q-13 0 -21 -8v111q-1 79 61 136q59 54 134 54q74 0 128 -48.5t67 -128.5zM371 177q0 -42 -19 -76q-22 -40 -58 -40q-33 0 -55 34q-19 28 -19 54v374q0 29 26 49q23 19 48 19
q40 0 61 -33q16 -26 16 -58v-323zM473 416q0 23 -51 126q0 -31 -7 -77t-7 -47q0 -5 14.5 -34t15.5 -39q4 10 21 40q14 26 14 31zM351 161v327q0 13 -23 26q-2 -4 -9 -19q-5 -11 -5 -16v-334q0 -16 19 -35q18 36 18 51zM184 414q0 3 -8.5 23.5t-8.5 55.5q0 5 1.5 25t1.5 28
q-52 -103 -52 -126q0 -4 14.5 -34.5t16.5 -42.5q2 18 18.5 43t16.5 28z" />
    <glyph glyph-name="p" unicode="p" horiz-adv-x="628" 
d="M530 463q0 -19 -14 -62q-19 -58 -45 -58q-4 0 -20.5 -2.5t-24.5 -2.5q-4 0 -14.5 4.5t-15.5 4.5q-11 0 -17.5 -4.5t-9.5 -4.5q-5 0 -18.5 4.5t-18.5 4.5t-14 -4.5t-14 -4.5t-16 4.5t-17 4.5t-14.5 -4.5t-13.5 -4.5t-15.5 4.5t-15.5 4.5q-11 0 -27 -7q3 -7 16 -30
q11 -19 11 -25q0 -1 -17 -74q-17 -69 -14 -89q3 22 -15.5 95l-18.5 73q0 15 65 124q-13 20 -21 60l-14 68q-30 -127 -30 -126q0 -5 11 -25q13 -24 17 -34v-14q-19 13 -36 -4v213q0 21 -17 42q-21 25 -48 22v27h172q134 0 154 -9q80 -21 110 -74q20 -35 20 -97zM440 643
q-27 15 -55 13h-327v-58q25 -1 44.5 -21.5t19.5 -52.5v-396q0 -66 -65 -70v-57h249v57q-39 -1 -56 24q-14 20 -13 59v148h148q68 0 118 57q48 53 48 119q0 47 -20 93q-24 59 -70 78zM644 385q0 -76 -50 -139q-55 -70 -140 -70h-120v-117q0 -5 32.5 -42.5t32.5 -42.5v-80
h-300l-62 87v96q20 4 41 9q24 10 24 39v407q0 23 -22 35q-18 10 -43 8v98h340q9 0 51 -13q46 -15 65 -26q70 -43 112 -115q39 -68 39 -134zM505 412q2 23 -12 62l-22 60q5 -82 -42 -187zM436 473q0 59 -28.5 82.5t-91.5 23.5q-96 0 -96 -51v-157h144q34 0 55 39q17 32 17 63
zM416 473q0 -26 -13 -51q-18 -35 -51 -34h-115v115q0 39 23 51q15 9 56 9q56 0 78 -18.5t22 -71.5zM391 430v22q-10 5 -26 5q-14 0 -30 -14v-43h14q33 16 42 30z" />
    <glyph glyph-name="q" unicode="q" horiz-adv-x="728" 
d="M714 4q0 -58 -46 -97q-41 -33 -89 -33q-41 0 -74.5 18t-35.5 18q4 0 -29 -12t-83 -12q-179 0 -251 177q-45 109 -45 271q0 138 32 215q56 132 205 132q106 0 203 -82q102 -88 102 -201v-203q111 -81 111 -191zM620 94q0 71 -36 81q2 -6 2 -14q0 -19 -11.5 -37t-26.5 -18
q-48 0 -48 43q0 14 5 36.5t5 28.5v241q0 78 -74 143q-70 63 -142 63q-212 0 -212 -327q0 -143 24 -211q47 -131 188 -131q31 0 67 9q44 12 61 32q40 -57 96 -57q48 0 76 36q26 33 26 82zM370 232q-24 37 -83 37q-37 0 -66 -24v266q-1 31 20 55.5t53 24.5q40 0 61 -33
q16 -26 15 -58v-268zM489 339q-8 8 -21 8t-28 -7q12 -25 33 -50l-47 -172q2 43 -4 93q-6 59 -18 81q17 16 32 44q-7 12 -48 11v168q-1 41 -28 69t-66 28q-42 0 -70 -34q-24 -29 -25 -66v-169q-26 12 -46 -3q10 -28 30 -48q-25 -65 -25 -117q0 -30 8 -57q-52 137 -52 169
q0 5 13 24q17 22 20 29q-17 8 -26 8q-12 0 -23 -9v115q0 74 66 132q62 54 130 54q66 0 130.5 -55t64.5 -122v-124zM371 124q0 -30 -30 -48q-24 -15 -47 -15q-32 0 -53 18t-21 49q0 68 67 68q27 0 53 -17q31 -21 31 -55zM473 416q0 18 -26 74q-24 50 -30 56q2 -12 2 -27
q0 -25 -5.5 -62t-5.5 -39q0 -4 14 -33t16 -42q3 21 19 46t16 27zM350 273v215q1 13 -22 26q-14 -27 -14 -31v-193q11 -3 36 -17zM183 413q-16 35 -16 80q0 43 3 53q-56 -99 -56 -128q0 -5 15 -32q16 -32 20 -43q1 44 34 70zM351 124q0 5 -9.5 18.5t-17.5 16.5
q-10 -10 -10 -33q0 -22 14 -36q8 4 15.5 15.5t7.5 18.5z" />
    <glyph glyph-name="r" unicode="r" horiz-adv-x="730" 
d="M710 22q0 -54 -37 -91t-90 -37q-100 0 -154 116q-30 65 -49 186h-46v-125q0 -5 26 -35q39 -43 47 -54v-88h-308l-62 87v96q20 4 41 9q24 10 24 39v407q0 37 -65 48v93h344q108 0 185 -99q70 -90 70 -189q0 -92 -73 -138q1 0 68 -4q79 -86 79 -98v-123zM624 116v108h-57
v-54q-3 -35 -15 -48h-11q-14 17 -17 57q-6 57 -10 74q-12 46 -45 79q73 46 73 149q0 73 -41 122q-46 53 -124 53h-319v-60q6 1 11 1q25 0 41 -26q12 -22 12 -48v-394q0 -69 -64 -68v-60h251v60q-4 -1 -8 -1q-20 0 -40.5 16.5t-20.5 35.5v178h100q47 0 62 -78l24 -143
q25 -77 98 -77q47 0 76 42q24 36 24 82zM526 481q0 -28 -16 -74q-23 -64 -59 -64q-4 0 -18 3q-11 2 -13 0l43 31q39 31 39 49q0 25 -27 104q-5 -59 -19 -97t-48 -88q67 -43 67 -132v-22.5v-21.5q0 -28 4 -47q-16 106 -83 169q12 18 12 37q0 14 -7 17q-3 2 -18 2
q-159 0 -204 -7q3 -6 19 -29q14 -18 14 -24q0 2 -16.5 -59.5t-16.5 -88.5q0 -10 2 -15q-34 168 -34 163q0 5 11 22q14 21 17 27q-5 11 -36 11v197q0 21 -15 45q-17 29 -39 29q-6 0 -11 -2v24h286q166 0 166 -159zM436 473q0 63 -33 89q-29 21 -93 21q-43 0 -56 -4
q-34 -10 -34 -47v-165h132q39 0 64 38q20 32 20 68zM212 416q0 -1 -17.5 47.5t-17.5 78.5q1 -24 -14.5 -75.5t-15.5 -52.5q0 -5 14 -32.5t16 -36.5q5 11 21 42q14 26 14 29zM420 471q0 -22 -14 -51q-18 -37 -46 -36h-119v152q0 21 29 26q7 1 42 1q53 0 76 -15q32 -21 32 -77
zM395 434v13q-9 10 -28 10q-16 0 -32 -14v-39h29q8 0 20 11t11 19z" />
    <glyph glyph-name="s" unicode="s" horiz-adv-x="619" 
d="M591 110q0 -89 -54 -154q-59 -70 -152 -70q-54 0 -96.5 22.5t-49.5 22.5q-22 0 -32 -37h-92l-70 87v263h93q68 -154 152 -154q18 0 35.5 10.5t17.5 27.5q0 18 -76 58q-94 49 -139 97q-75 80 -75 196q0 98 66 152q61 50 154 50q52 0 83 -10t33 -10q1 0 30.5 8t33.5 8
q25 0 39 -2q75 -94 75 -102v-218h-68q-34 27 -90 86q-8 26 -17 51q-19 42 -58 42q-53 0 -53 -53q0 -36 81 -71q108 -47 149 -86q80 -76 80 -214zM497 194q0 119 -80 171q-14 9 -149 57q-80 29 -80 90q0 87 83 87q52 0 97.5 -41t56.5 -97h47v195h-51q-15 -16 -30 -16
q-5 0 -65 12.5t-65 12.5q-81 0 -134.5 -51t-53.5 -135q0 -112 79 -167q7 -5 145 -65q78 -34 78 -96q0 -32 -24 -57t-59 -25q-59 0 -104 36q-51 41 -70 119h-52v-224h51q21 37 40 37q21 0 63 -22.5t92 -22.5q89 0 140 62q45 56 45 140zM456 482h-19q-20 67 -68 102
q-43 32 -98 32q-48 0 -76 -27.5t-28 -72.5q0 -48 42 -80q29 -22 97 -48q81 -30 106 -44q-6 0 -19 1.5t-18 1.5t-15 -4.5t-15 -4.5t-17 4.5t-18 4.5q-5 0 -19.5 -4.5t-19.5 -4.5t-4 4.5t-4 4.5q-6 0 -6 -1q-20 12 -64 50q-6 7 -11 25.5t-8 24.5q-30 58 -38 104
q-7 -17 -15 -57q-7 -36 -7 -47q0 -36 60 -69q47 -27 71 -28q-6 0 -22.5 -5.5t-20.5 -5.5q-5 0 -14 4.5t-15 4.5q-12 0 -20 -9q-42 41 -53 78q-6 19 -6 61q0 82 46 126q44 41 125 41q37 0 81 -10t48 -10q25 0 35 16h27v-158zM440 208q0 -22 -14 -90q-1 70 -59 141
q-42 50 -90 79h14q149 1 149 -130z" />
    <glyph glyph-name="t" unicode="t" horiz-adv-x="632" 
d="M611 290h-96l-64 81l-3 -303q8 -13 39 -54q27 -35 26 -40v-80h-292q-70 79 -70 88v95l42 10q27 11 27 38v161q-23 1 -71 5q-4 0 -50 42.5t-46 52.5v286h484l47 -57q28 -35 27 -42v-283zM517 396v260h-443v-260h60v108q1 19 16 46q19 33 44 33q21 0 35 -24q12 -20 12 -40
v-402q0 -30 -22 -45.5t-47 -10.5v-60h247v60q-27 -5 -47 13q-17 15 -17 34v425q0 12 13 31t28 19q63 0 63 -145q0 -46 -1 -42h59zM501 412h-23q0 74 -6 101q-16 86 -76 86q-30 0 -48 -27q-14 -22 -14 -48v-181q-36 7 -36 -5q0 -4 14 -25.5t14 -27.5q0 -1 -16 -67.5
t-14 -82.5q-6 27 -22 94q-13 53 -13 58q0 4 13 23q16 23 20 30q-12 7 -21 7q-10 0 -20 -8v197q0 25 -15 44t-42 19q-43 0 -64 -44q-15 -31 -18 -85v-58h-24v228h411v-228zM326 414l-15 53.5t-15 74.5q-4 -16 -21 -76q-14 -47 -14 -52q0 -4 12 -25q16 -26 23 -46
q0 13 15 40.5t15 30.5z" />
    <glyph glyph-name="u" unicode="u" horiz-adv-x="674" 
d="M656 490q-27 3 -48 -13t-21 -38v-356q0 -92 -66 -147q-60 -50 -148 -50q-128 0 -205 107q-66 93 -66 213v326q0 18 -21.5 31t-47.5 17v93h278q9 0 25 -16q3 2 3 15h239l78 -103v-79zM408 185v308h-34q-46 0 -46 -121q0 -18 1 -41.5t1 -24.5q0 1 -1 -22.5t-1 -43.5
q0 -134 43 -134q15 0 27 34q10 28 10 45zM558 596v60h-198v-60q6 1 11 1q25 0 41 -19.5t16 -41.5v-354q0 -40 -21 -75q-26 -46 -75 -46q-53 0 -78 50q-17 37 -17 90v336q0 23 15 41.5t38 18.5q5 0 11 -1v60h-247v-60q35 6 54 -24q14 -21 14 -49v-333q0 -86 50 -140
q54 -58 150 -58q86 0 132 62q39 53 39 131v356q0 22 16 39q19 21 49 16zM542 616q-69 -13 -69 -92v-181q-20 5 -28 -4v209q0 20 -19 42q-22 25 -50 26v24h166v-24zM285 616q-27 -1 -46 -17t-19 -42v-218q-10 8 -16 8q-20 0 -20 -11q0 -5 14 -24t14 -25l-12 -63.5t-10 -93.5
l-43 156q14 21 28 50q-4 11 -20 11q-6 0 -16 -8v213q0 31 -25 50q-22 16 -44 14v24h215v-24zM212 416l-15.5 48t-14.5 70q-35 -112 -35 -118q0 -2 15 -30t15 -43q4 12 21 42q14 27 14 31z" />
    <glyph glyph-name="v" unicode="v" horiz-adv-x="666" 
d="M656 490l-40 -6q-24 -7 -32 -30q-52 -160 -157 -560h-145q-4 7 -33 39q-22 25 -27.5 44t-49 251t-71.5 328q-4 13 -28 19q-18 2 -36 5v92h276q10 -16 27 -48q6 21 -1 48h243l74 -98v-84zM391 485h-31q-17 -26 -17 -36q0 -6 7 -37q9 -34 11 -45q11 40 30 118zM562 600v56
h-198v-56q69 -6 60 -49l-100 -388l-75 386q-3 28 16 39q10 7 40 12v56h-247v-56q13 -2 26 -5q20 -5 25 -15q29 -62 68 -273q51 -269 60 -307h109q3 12 83 302q50 182 82 274q5 15 25 19q13 3 26 5zM542 617q-51 -21 -81 -120l-43 -159q-8 9 -12 9q-6 0 -9.5 -2t-4.5 -2
q13 45 32.5 123t19.5 87q0 59 -64 63v24h162v-23zM289 616q-61 -4 -61 -66q0 -9 13 -76q13 -72 24 -117v-14q-22 0 -31 -4q1 -7 13 -24.5t21 -21.5v-163q-8 25 -38 94q-26 58 -26 63t9 21q13 22 15 28q-9 11 -22 11q-5 0 -13 -9q-12 31 -23.5 105t-25.5 106q-22 51 -70 68
v23h215v-24zM245 412q0 3 -22 54q-26 60 -34 80q0 -69 -2.5 -101.5t-2.5 -24.5q0 -6 15 -31l28 -46q1 9 10 39q8 25 8 30z" />
    <glyph glyph-name="w" unicode="w" horiz-adv-x="835" 
d="M823 490q-20 -3 -41 -5q-28 -5 -35 -27q-22 -72 -51 -243q-51 -289 -57 -321h-116q-67 80 -81 159q-6 -48 -23 -159h-120l-41 45q-23 27 -29 46q-23 86 -62 284q-37 185 -66 283q-5 17 -24.5 20.5t-39.5 7.5v92h280q10 -12 27 -36q7 21 7 36h125q11 -20 31 -40q3 9 3 40
h239l74 -98v-84zM729 596v60h-198v-60q58 5 58 -34q0 -6 -2 -13l-47 -284l-84 391h-84l-60 -391l-67 300q-2 5 -2 9q0 13 21 18l29 4v60h-235v-60q47 1 55 -24q44 -146 136 -572h85l64 391l80 -391h80q19 92 60 335q25 146 60 245q3 10 23 14q16 4 28 2zM713 616
q-55 -16 -74 -59q-11 -26 -16 -96q-6 -75 -20 -118q-24 0 -31 -4q36 203 36 216q0 32 -10 43.5t-51 17.5v24h166v-24zM506 275q0 10 -3 -31t-3 -122q-9 29 -38 99q-26 62 -26 66l21 42v11q-11 6 -32 -1q-6 53 -28 81q-15 -6 -21 -33q-2 -20 -5 -40q-11 -2 -28 -8l45 301h56
l57 -301l-29 4l-7 -7l27 -32t14 -29zM277 279l-5 -61.5t-5 -91.5q-8 28 -35 97q-24 60 -24 64q0 11 21 42v10q-16 5 -36 4q-10 25 -23 100q-11 72 -26 106q-24 52 -70 68v23h203v-24q-53 -2 -53 -43l49 -234h-37q4 -6 25 -33q16 -20 16 -27zM477 414q0 6 -22 51
q-28 58 -34 73v-115q-1 -7 17 -37q20 -37 23 -43q2 15 9 41.5t7 29.5zM249 412q0 5 -24 54q-30 59 -37 76v-124q0 -5 17 -33q23 -38 26 -42q1 7 10 37q8 27 8 32z" />
    <glyph glyph-name="x" unicode="x" horiz-adv-x="663" 
d="M660 -106h-516l-91 87v96q21 4 42 9q25 7 42 35q27 44 61 107.5t34 71.5q0 9 -49 105q-55 107 -93 161q-10 14 -53 14v92h537l74 -98v-84q-6 -1 -46 -5q-26 -2 -40 -13q-22 -19 -68 -101q-41 -75 -41 -81q0 -20 94 -164q92 -140 113 -160v-72zM566 1v60q-29 -3 -44 13
q-9 10 -26 45q-18 41 -37 68q-23 32 -57 96q-31 57 -31 62q0 9 48 96q52 93 87 143q10 13 48 12v60h-207v-60q15 3 32 -4q21 -7 21 -21q0 -7 -72 -147q-75 129 -75 143q0 20 17.5 23.5t34.5 5.5v60h-247v-60q33 1 50 -17q11 -12 27 -50q19 -44 38 -71q23 -34 54 -95
q30 -56 30 -63q0 -8 -54.5 -103t-75.5 -119q-8 -9 -27 -13q-13 -2 -26 -5v-59h199v60q-27 0 -37 11q-2 22 22 68l42 72l37 -65q21 -39 26 -68q-12 -15 -30 -18h-27v-60h260zM538 616q-35 -6 -70 -57q-21 -31 -59.5 -109t-58.5 -107q-36 3 -48 -2q34 2 67 -78l46 -132
q-16 24 -123 160q8 31 8 59q0 57 -38 109l-61 75q19 -76 26 -93q21 -53 66 -97l-6 1.5t-11 1.5q-10 0 -17 -9q-35 57 -75 140q-35 73 -50 95q-26 36 -60 43v24h215v-24q-23 4 -40 -10t-17 -31q0 -18 41 -93q37 -69 51 -86q12 13 51 80q45 78 45 99q0 15 -15.5 28t-36.5 13
v24h170v-24z" />
    <glyph glyph-name="y" unicode="y" horiz-adv-x="653" 
d="M644 498q-117 -32 -154 -129q-21 -54 -21 -177q0 -9 -1 -28v-29q0 -101 66 -161v-80h-300l-62 87v96q20 4 40 9q25 10 25 39v178q0 2 -49 91l-75 141q-15 30 -38 37l-38 8v92h525l82 -98v-76zM554 596v60h-207v-60q15 4 34 -4t19 -23q0 -9 -28 -60t-48 -81
q-71 131 -71 139q0 16 17 22q4 2 35 7v60h-247v-60q32 -1 52 -24q13 -14 32 -56q22 -49 39 -75q22 -33 49 -82t27 -56v-186q0 -22 -15 -38q-18 -21 -50 -18v-60h248v60q-27 -4 -48 11.5t-21 39.5v237q0 2 127 223q15 26 56 24zM538 616q-39 -1 -99 -106l-94 -172q-8 9 -17 9
q-18 0 -18 -9q0 -5 16.5 -25t16.5 -26q0 -1 -16 -80t-15 -89q-4 29 -20 102l-15 67q0 3 12.5 20t12.5 25q0 13 -8 15q1 0 -13 0t-22 -9q-18 26 -56.5 104.5t-60.5 111.5q-36 55 -68 62v24h215v-24q-37 -3 -47 -12t-10 -31q0 -21 40 -90q31 -55 49 -79q16 8 57.5 80t41.5 89
q0 35 -57 43v24h175v-24zM305 343v14q-2 24 -13 66q-13 22 -47.5 61t-43.5 54l33 -98q22 -55 71 -97z" />
    <glyph glyph-name="z" unicode="z" horiz-adv-x="616" 
d="M595 544q0 -28 -77 -164l-86 -145q8 -1 37 1q24 2 36 -5q24 -15 54 -56q28 -37 28 -46v-235h-455l-78 78q-13 15 -13 59q0 35 64 155l83 150q-15 2 -64 4l-41 50q-26 30 -26 37v245h460l57 -71q21 -28 21 -57zM251 464l-21 5q-16 -15 -16 -37q0 -39 -1 -40q16 26 38 72z
M497 597v59h-419v-211h64q-4 91 24 115q18 15 87 15q48 0 65 -14q-25 -90 -147 -299q-114 -197 -114 -203v-58h440v210h-64q3 -20 3 -37q0 -63 -42 -82q-23 -10 -88 -10q-14 -2 -25 -2q-53 0 -53 26q0 21 134.5 256.5t134.5 234.5zM410 192q-15 -26 -37 -73l21 -5
q15 13 16 37v41zM481 605l-152 -262q-23 7 -43 1q62 53 80 107l20 88q-106 -116 -105 -196q-23 7 -44 0l56 102q45 84 45 105q0 43 -51 43q-8 0 -20 -1t-14 -1q-76 0 -96 -14q-34 -24 -35 -116h-28v179h387v-35zM290 292q0 -6 -49 -67q-60 -74 -77 -98q24 48 36 93
q10 41 18 55q15 25 62 63q0 -5 5 -23t5 -23z" />
    <glyph glyph-name="cent" unicode="&#xa2;" horiz-adv-x="752" 
d="M754 212q0 -73 -65 -155q-68 -85 -148 -102q-1 -13 -1 -97h-121l-36 59q-24 36 -50 51q-146 82 -215 211q-57 106 -57 229q0 115 51 203q66 117 203 143q3 39 2 86h125q51 -67 143 -170q81 -90 107 -130q42 -63 42 -122q0 -47 -20.5 -83.5t-20.5 -41.5q0 -6 30.5 -41
t30.5 -40zM505 324q0 17 -36 52t-36 73q0 18 10 45h-23q-38 -15 -38 -86q0 -39 10 -80q17 -73 57 -73q20 0 38 21t18 48zM632 510q0 171 -210 218v92h-85q8 -48 0 -97q-127 -14 -194 -116q-56 -85 -56 -199q0 -112 53 -194q66 -102 202 -121v-102h80v106q67 -5 140 69
q70 70 70 126v23h-106q-2 -42 -43.5 -76.5t-82.5 -34.5q-78 0 -113 92q-22 60 -22 135q0 196 122 196q30 0 73 -13q65 -19 65 -53q0 -16 -33 -48.5t-33 -61.5q0 -30 27 -46q21 -13 49 -13q47 0 74 37q23 33 23 81zM607 525q0 -41 -14 -70q-19 -42 -60 -42q-13 0 -31 10
q-23 13 -23 28q0 12 33 45t33 62q0 50 -64 74q-43 15 -91 15q-70 0 -110 -49t-40 -126q0 -24 4 -49q-16 10 -35 10q-21 0 -26 -4.5t-5 -18.5q0 -18 17 -41q20 -29 22 -34q4 -11 7 -40q3 -32 7 -47q4 -18 37 -48.5t48 -34.5q-26 0 -101 54q-82 60 -82 105q0 9 13.5 43.5
t26.5 57.5q-14 8 -35 8q-10 0 -30 -10q-3 103 67 189q77 93 188 91v96h34v-91q111 -22 160.5 -64.5t49.5 -118.5zM295 656q-35 -12 -85 -54q-57 -49 -57 -85q0 -10 8 -42.5t15 -46.5q15 26 31 82q18 60 30 84q21 42 58 62z" />
    <glyph glyph-name="bullet" unicode="&#x2022;" horiz-adv-x="398" 
d="M387 339q0 -69 -40.5 -107t-101.5 -38q-85 0 -144 78q-50 67 -50 136q0 63 42 105.5t101 42.5q85 0 143 -75q50 -66 50 -142zM311 413q0 46 -30 82q-34 40 -85 40q-52 0 -87 -42q-33 -38 -33 -83q0 -46 36.5 -82.5t83.5 -36.5q50 0 82.5 36t32.5 86zM306 410
q-24 -11 -38 -33q-27 23 -52 31h-14q-3 -3 -3 -15q0 -19 30 -60q-25 -10 -33 -37q-3 8 -33 38q36 59 36 76q0 8 -19 42q-18 31 -22 35q21 11 38 43q11 -21 33 -43q-10 -7 -20 -28.5t-10 -37.5q0 -8 7 -8q26 0 62 36q11 -27 38 -39zM186 410q-31 1 -61 -38q-21 31 -43 38
q25 9 43 39q20 -26 61 -39z" />
    <glyph glyph-name="nonbreakingspace" unicode="&#xa0;" 
 />
    <glyph glyph-name="endash" unicode="&#x2013;" horiz-adv-x="526" 
d="M550 255h-441q-53 62 -53 80v123h432l39 -53q23 -32 23 -40v-110zM468 347v96h-386v-96h386zM443 363h-340v59h340v-59z" />
    <glyph glyph-name="emdash" unicode="&#x2014;" horiz-adv-x="1031" 
d="M1055 255h-947l-36 46q-21 26 -21 34v123h947q27 -45 57 -82v-121zM978 347v96h-906v-96h906zM958 363h-860v59h860v-59z" />
    <glyph glyph-name="quotedblleft" unicode="&#x201c;" horiz-adv-x="607" 
d="M459 630q0 -26 -17.5 -45t-41.5 -19q-37 0 -56 36q-13 26 -13 56q0 41 24 82q31 50 88 70v-19q-24 -1 -51 -32q-24 -27 -30 -53l4 -38q22 15 42 15q19 0 35 -20t16 -33zM586 550q-19 -64 -38 -87q-25 -30 -76 -30q-75 0 -118 67q-38 -67 -102 -67q-75 0 -132 86
q-49 73 -49 136q0 67 48 131q55 75 136 75q8 0 69 -91q62 77 159 91l65 -88q18 -24 18 -64q0 -18 -13 -43t-13 -29q0 -6 14 -31q19 -30 22 -37v-17h-143q21 8 35 36q11 23 11 44q0 23 -19 47t-45 24q-7 0 -31 -9q-7 19 24 51.5t57 38.5v53q-71 -10 -115 -67
q-39 -52 -39 -115q0 -27 10 -53q14 -36 41 -49h-153q23 2 36 29q10 21 10 48q0 77 -91 69v17q-1 23 39 47l42 21v49q-4 3 -11 3q-61 0 -106 -73q-36 -59 -36 -105q0 -115 129 -115q12 0 35 1t32 1zM234 627q0 -28 -15.5 -44.5t-37.5 -16.5q-37 0 -56 36q-13 26 -13 56
q0 45 29 89q32 49 83 63q-4 -14 -27 -30q-30 -22 -39 -33q-21 -25 -21 -61v-19q35 16 52 16q45 0 45 -56z" />
    <glyph glyph-name="quotedblright" unicode="&#x201d;" horiz-adv-x="590" 
d="M561 624q0 -155 -177 -211q-22 31 -70 92q-40 -66 -149 -92l-83 109v99q32 7 61 29q-46 24 -62 49q-15 21 -15 55q0 44 26.5 75.5t78.5 31.5q73 0 118 -66q9 6 20 25.5t22 27.5q19 13 54 13q83 0 135 -95q41 -74 41 -142zM469 726q0 42 -15 72q-23 43 -72 43
q-34 0 -55 -27t-21 -60q0 -24 13 -44q18 -27 53 -27q3 0 17 2q10 2 14 -1q2 -21 -28 -53t-53 -30v-55q147 34 147 180zM255 732q0 41 -22 72q-25 37 -70 37q-34 0 -57 -28q-19 -26 -19 -59q0 -25 12 -44q18 -27 54 -27q3 0 17 3q9 1 14 -2q-1 -23 -27 -50t-54 -33v-55
q74 10 117 76q35 52 35 110zM449 724q0 -108 -107 -158v25q41 5 81 95l-4 33q-22 -16 -44 -16q-49 0 -49 57q0 25 16.5 43t39.5 18q67 0 67 -97zM234 729q0 -45 -30 -92q-34 -51 -81 -66v20q26 2 51 34q21 28 30 61l-4 33q-23 -16 -42 -16q-22 0 -36.5 16.5t-14.5 37.5
q0 22 16.5 43t39.5 21q39 0 58 -38q13 -26 13 -54z" />
    <glyph glyph-name="quoteleft" unicode="&#x2018;" horiz-adv-x="378" 
d="M352 540q0 -44 -27.5 -75.5t-72.5 -31.5q-80 0 -135 88q-46 72 -46 137q0 75 45 129q49 59 142 74l63 -84q15 -22 15 -66q0 -10 -10 -41t-10 -33q0 3 18 -35t18 -62zM255 630q0 26 -13 47q-18 26 -51 26q-12 0 -28 -5v18q4 22 32 45q24 21 44 25v55q-73 -19 -114 -81
q-33 -49 -33 -102q0 -45 20 -74q23 -33 66 -33q77 0 77 79zM234 630q0 -23 -13 -42q-15 -22 -40 -22q-38 0 -56 37q-13 26 -13 57q0 41 20 78q27 52 86 77l6 -19q-23 3 -51 -30q-23 -29 -30 -55l3 -43q16 15 40 15q48 0 48 -53z" />
    <glyph glyph-name="quoteright" unicode="&#x2019;" horiz-adv-x="376" 
d="M347 627q0 -69 -45 -123q-48 -58 -137 -86l-88 109v99q36 6 66 29q-82 40 -82 102q0 39 28 74.5t69 35.5q85 0 143 -98q46 -78 46 -142zM250 732q0 37 -16 66q-22 43 -71 43q-40 0 -60 -28q-16 -23 -16 -56q0 -69 63 -69q3 0 18 3q10 1 16 -2q-1 -23 -30 -53t-51 -30v-55
q77 15 116 73q31 47 31 108zM229 729q0 -50 -26 -90q-29 -44 -85 -62v19q20 -5 51 31.5t35 63.5l-4 28q-5 -1 -24 -9q-14 -7 -21 -7q-22 0 -35 17t-13 40q0 27 16 44t40 17q66 0 66 -92z" />
  </font>
</defs>
</svg>
